<svg width="24" height="24" viewBox="0 0 24 24" fill="none" xmlns="http://www.w3.org/2000/svg">
<path d="M13.0281 2.00195C14.1535 2.00381 14.7238 2.00976 15.2166 2.02443L15.4107 2.03078C15.6349 2.03875 15.8561 2.04875 16.1228 2.06125C17.1869 2.11041 17.9128 2.27875 18.5503 2.52625C19.2094 2.78041 19.7661 3.12375 20.3219 3.67958C20.8769 4.23541 21.2203 4.79375 21.4753 5.45125C21.7219 6.08791 21.8903 6.81458 21.9403 7.87875C21.9522 8.14541 21.9618 8.36661 21.9697 8.59086L21.976 8.78494C21.9906 9.27769 21.9973 9.84807 21.9994 10.9735L22.0002 11.7192C22.0003 11.8103 22.0003 11.9043 22.0003 12.0013L22.0002 12.2834L21.9996 13.0291C21.9977 14.1545 21.9918 14.7248 21.9771 15.2176L21.9707 15.4117C21.9628 15.6359 21.9528 15.8571 21.9403 16.1238C21.8911 17.1879 21.7219 17.9138 21.4753 18.5513C21.2211 19.2104 20.8769 19.7671 20.3219 20.3229C19.7661 20.8779 19.2069 21.2213 18.5503 21.4763C17.9128 21.7229 17.1869 21.8913 16.1228 21.9413C15.8561 21.9532 15.6349 21.9628 15.4107 21.9707L15.2166 21.977C14.7238 21.9916 14.1535 21.9983 13.0281 22.0004L12.2824 22.0012C12.1913 22.0013 12.0973 22.0013 12.0003 22.0013L11.7182 22.0012L10.9725 22.0006C9.8471 21.9987 9.27672 21.9928 8.78397 21.9781L8.58989 21.9717C8.36564 21.9638 8.14444 21.9538 7.87778 21.9413C6.81361 21.8921 6.08861 21.7229 5.45028 21.4763C4.79194 21.2221 4.23444 20.8779 3.67861 20.3229C3.12278 19.7671 2.78028 19.2079 2.52528 18.5513C2.27778 17.9138 2.11028 17.1879 2.06028 16.1238C2.0484 15.8571 2.03871 15.6359 2.03086 15.4117L2.02457 15.2176C2.00994 14.7248 2.00327 14.1545 2.00111 13.0291L2.00098 10.9735C2.00284 9.84807 2.00879 9.27769 2.02346 8.78494L2.02981 8.59086C2.03778 8.36661 2.04778 8.14541 2.06028 7.87875C2.10944 6.81375 2.27778 6.08875 2.52528 5.45125C2.77944 4.79291 3.12278 4.23541 3.67861 3.67958C4.23444 3.12375 4.79278 2.78125 5.45028 2.52625C6.08778 2.27875 6.81278 2.11125 7.87778 2.06125C8.14444 2.04937 8.36564 2.03968 8.58989 2.03183L8.78397 2.02554C9.27672 2.01091 9.8471 2.00424 10.9725 2.00208L13.0281 2.00195ZM12.0003 7.00125C9.23738 7.00125 7.00028 9.24078 7.00028 12.0013C7.00028 14.7642 9.23981 17.0013 12.0003 17.0013C14.7632 17.0013 17.0003 14.7617 17.0003 12.0013C17.0003 9.23835 14.7607 7.00125 12.0003 7.00125ZM12.0003 9.00125C13.6572 9.00125 15.0003 10.3439 15.0003 12.0013C15.0003 13.6582 13.6576 15.0013 12.0003 15.0013C10.3434 15.0013 9.00028 13.6586 9.00028 12.0013C9.00028 10.3444 10.3429 9.00125 12.0003 9.00125ZM17.2503 5.50125C16.561 5.50125 16.0003 6.06115 16.0003 6.7504C16.0003 7.43964 16.5602 8.00041 17.2503 8.00041C17.9395 8.00041 18.5003 7.44051 18.5003 6.7504C18.5003 6.06115 17.9386 5.50038 17.2503 5.50125Z" fill="white"/>
</svg>
