<svg width="22" height="18" viewBox="0 0 22 18" fill="none" xmlns="http://www.w3.org/2000/svg">
<path d="M21.2125 2.65703C20.4491 2.99473 19.6395 3.21652 18.8106 3.31508C19.6839 2.79229 20.3374 1.96988 20.6493 1.00103C19.8287 1.48859 18.9305 1.83175 17.9938 2.01559C17.2031 1.17204 16.098 0.694005 14.9418 0.695315C12.6326 0.695315 10.7597 2.56759 10.7597 4.87781C10.7597 5.20556 10.7973 5.5234 10.8676 5.83007C7.39048 5.65502 4.31008 3.99103 2.24678 1.46039C1.87529 2.09865 1.68006 2.82415 1.68105 3.56264C1.68105 5.01357 2.41961 6.29422 3.5415 7.04398C2.87738 7.02298 2.22789 6.84361 1.64719 6.5207C1.64655 6.53827 1.64654 6.55584 1.64654 6.57245C1.64654 8.59937 3.0882 10.2902 5.002 10.6741C4.64281 10.7713 4.27233 10.8204 3.90022 10.8201C3.62997 10.8201 3.36772 10.7952 3.1128 10.7463C3.64532 12.4075 5.18886 13.6169 7.0196 13.6501C5.53813 14.8128 3.70869 15.4436 1.82543 15.4409C1.49212 15.4412 1.15909 15.4215 0.828125 15.3821C2.74004 16.6112 4.96552 17.2635 7.23842 17.2611C14.9316 17.2611 19.138 10.8885 19.138 5.36208C19.138 5.18127 19.1336 4.99984 19.1256 4.82095C19.9443 4.22943 20.651 3.49665 21.2125 2.65703Z" fill="white"/>
</svg>
