<svg width="84" height="30" viewBox="0 0 84 30" fill="none" xmlns="http://www.w3.org/2000/svg">
<g clip-path="url(#clip0_110_138)">
<g clip-path="url(#clip1_110_138)">
<g clip-path="url(#clip2_110_138)">
<path d="M29.3667 25.2858C28.466 24.6241 27.3448 23.7234 27.2345 22.1426C27.1794 21.2971 27.4183 20.3505 27.6573 19.6612C27.8043 19.3395 27.933 19.0087 28.0525 18.6778V18.6686C30.635 11.3806 26.8209 3.37566 19.5237 0.793135C12.2265 -1.78939 4.23992 2.03385 1.65739 9.32191C-0.925135 16.61 2.88892 24.6149 10.1862 27.1974C14.2116 28.6219 18.669 28.1348 22.29 25.8648C22.6577 25.6902 22.9701 25.5891 23.1448 25.6626C25.0012 26.4438 27.0323 26.6827 29.0175 26.3335C29.3667 26.2784 30.2582 25.9475 29.3667 25.2858ZM13.3845 18.7789C13.3845 19.652 12.6768 20.3597 11.8037 20.3597H10.7284C9.85531 20.3597 9.14764 19.652 9.14764 18.7789V18.7146C9.14764 17.8415 9.85531 17.1338 10.7284 17.1338H11.8037C12.6768 17.1338 13.3845 17.8415 13.3845 18.7146V18.7789ZM18.2554 14.0826C18.2554 14.9557 17.5477 15.6633 16.6746 15.6633H10.7284C9.85531 15.6633 9.14764 14.9557 9.14764 14.0826V14.0091C9.14764 13.136 9.85531 12.4283 10.7284 12.4283H16.6746C17.5477 12.4283 18.2554 13.136 18.2554 14.0091V14.0826ZM21.7202 9.28514C21.7202 10.1582 21.0126 10.8659 20.1395 10.8659H10.7284C9.85531 10.8659 9.14764 10.1582 9.14764 9.28514V9.22081C9.14764 8.34772 9.85531 7.64005 10.7284 7.64005H20.1395C21.0126 7.64005 21.7202 8.34772 21.7202 9.22081V9.28514ZM41.3787 7.96171C41.0386 7.96171 40.7353 7.73195 40.2574 7.73195C39.32 7.73195 38.741 8.37529 38.741 9.54248V10.2318H40.0736C40.671 10.2318 41.1581 10.7189 41.1581 11.3162C41.1581 11.9136 40.671 12.4007 40.0736 12.4007H38.741V20.2218C38.741 20.9019 38.1896 21.4533 37.5003 21.4533C36.8202 21.4533 36.2688 20.9019 36.2688 20.2218V12.3915H35.3497C34.7523 12.3915 34.2652 11.9044 34.2652 11.3071C34.2652 10.7097 34.7523 10.2226 35.3497 10.2226H36.2688V9.53329C36.2688 7.1989 37.6657 5.77438 39.7979 5.77438C41.057 5.77438 42.2518 6.2339 42.2518 7.01509C42.2702 7.51138 41.8842 7.93414 41.3971 7.95252C41.3879 7.96171 41.3879 7.96171 41.3787 7.96171ZM45.5879 21.435C44.9262 21.435 44.3748 20.9019 44.3748 20.2402V7.07024C44.3748 6.4269 44.8986 5.87547 45.6339 5.87547C46.2864 5.88466 46.8194 6.41771 46.8286 7.07024V20.2218C46.8194 20.8927 46.268 21.435 45.5879 21.435ZM54.7784 21.5728C51.2309 21.5728 49.0711 18.9352 49.0711 15.7552C49.0711 12.5937 51.2217 9.95605 54.7784 9.95605C58.3351 9.95605 60.4765 12.5937 60.4765 15.7552C60.4765 18.9352 58.3259 21.5728 54.7784 21.5728ZM54.7784 12.1342C52.7381 12.1342 51.6169 13.8252 51.6169 15.7552C51.6169 17.7036 52.7381 19.3947 54.7784 19.3947C56.7911 19.3947 57.9124 17.7036 57.9124 15.7552C57.9124 13.8344 56.7911 12.1342 54.7784 12.1342ZM71.3764 20.3321C70.5769 21.0673 69.428 21.5728 67.8289 21.5728C64.4652 21.5728 62.1032 19.119 62.1032 15.7552C62.1032 12.4099 64.4652 9.95605 67.8289 9.95605C69.52 9.95605 70.9445 10.5534 71.5602 11.4449C71.6705 11.592 71.7257 11.7666 71.7165 11.9504C71.7165 12.5937 71.1467 13.0073 70.5677 13.0073C70.3103 13.0165 70.0622 12.9338 69.86 12.7775C69.3086 12.3548 68.6377 12.125 67.9392 12.1342C65.9448 12.1342 64.6214 13.6231 64.6214 15.7552C64.6214 17.8874 65.954 19.3947 67.9392 19.3947C68.6377 19.3947 69.3178 19.1649 69.86 18.733C70.0622 18.5859 70.3103 18.5032 70.5677 18.5032C71.165 18.5032 71.7349 18.9352 71.7349 19.5785C71.744 19.8726 71.6154 20.1575 71.3764 20.3321ZM81.9455 21.435C81.5411 21.4442 81.1643 21.2603 80.9345 20.9295L77.8649 16.757L76.3485 18.3378V20.2218C76.3393 20.9019 75.7879 21.4442 75.1078 21.435C74.446 21.435 73.8946 20.9019 73.8946 20.2402V7.07024C73.8946 6.4269 74.4185 5.87547 75.1537 5.87547C75.8062 5.88466 76.3393 6.41771 76.3485 7.07024V15.5255L80.9529 10.4431C81.1551 10.2134 81.4492 10.0847 81.7525 10.0755C82.3866 10.0939 82.9013 10.6086 82.9197 11.2427C82.9105 11.5092 82.8094 11.7666 82.644 11.978L79.6203 15.2498L82.9197 19.5142C83.0575 19.7163 83.1403 19.9553 83.1494 20.2034C83.1586 20.7916 82.6715 21.435 81.9455 21.435Z" fill="#231F20"/>
</g>
</g>
</g>
<defs>
<clipPath id="clip0_110_138">
<rect width="82.31" height="28" fill="white" transform="translate(0.839844)"/>
</clipPath>
<clipPath id="clip1_110_138">
<rect width="82.31" height="28" fill="white" transform="translate(0.839844)"/>
</clipPath>
<clipPath id="clip2_110_138">
<rect width="82.31" height="27.9942" fill="white" transform="translate(0.839844 0.00292969)"/>
</clipPath>
</defs>
</svg>
