<svg width="88" height="28" viewBox="0 0 88 28" fill="none" xmlns="http://www.w3.org/2000/svg">
<g clip-path="url(#clip0_110_133)">
<g clip-path="url(#clip1_110_133)">
<g clip-path="url(#clip2_110_133)">
<path d="M34.5871 23.3892V4.51562H38.0533V23.3892H34.5871ZM67.8016 10.5529H71.1154V12.1146C71.8201 10.8576 73.458 10.191 74.8673 10.191C76.6195 10.191 78.0288 10.9528 78.6763 12.3241C79.6857 10.7624 81.0569 10.191 82.752 10.191C85.1135 10.191 87.3799 11.6194 87.3799 15.0666V23.3892H84.028V15.7712C84.028 14.4 83.3423 13.3525 81.7616 13.3525C80.2761 13.3525 79.4 14.4952 79.4 15.8855V23.3892H75.9719V15.7712C75.9719 14.4 75.2673 13.3525 73.7056 13.3525C72.201 13.3525 71.3059 14.4762 71.3059 15.8855V23.3892H67.8397V10.5529H67.8016ZM45.8808 23.7701C41.9766 23.7701 39.1579 20.8753 39.1579 16.9901C39.1579 13.1621 41.9766 10.191 45.8808 10.191C49.8231 10.191 52.6037 13.1811 52.6037 16.9901C52.6037 20.8372 49.785 23.7701 45.8808 23.7701ZM45.8808 13.3335C43.862 13.3335 42.2242 14.9713 42.2242 16.9901C42.2242 19.0089 43.862 20.6467 45.8808 20.6467C47.8996 20.6467 49.5184 19.0089 49.5375 16.9901C49.5184 14.9523 47.8996 13.3335 45.8808 13.3335ZM60.0122 23.7701C56.108 23.7701 53.2893 20.8753 53.2893 16.9901C53.2893 13.1621 56.108 10.191 60.0122 10.191C63.9545 10.191 66.7351 13.1811 66.7351 16.9901C66.7351 20.8372 63.8974 23.7701 60.0122 23.7701ZM60.0122 13.2763C57.9744 13.2763 56.3175 14.9332 56.3175 16.9711C56.3175 19.0089 57.9744 20.6658 60.0122 20.6658C62.05 20.6658 63.7069 19.0089 63.7069 16.9711C63.6879 14.9332 62.05 13.2763 60.0122 13.2763ZM14.628 17.9804C12.4187 17.9804 10.6476 16.1902 10.6476 14C10.6476 11.8099 12.4378 10.0196 14.628 10.0196C16.8181 10.0196 18.6084 11.8099 18.6084 14C18.6084 16.1902 16.8372 17.9804 14.628 17.9804ZM28.626 12.5336H20.0939L27.4833 8.26749L26.0169 5.7345L18.6274 10.0006L22.8935 2.61112L20.3605 1.14465L16.0944 8.53412V0.00195312H13.1615V8.53412L8.89542 1.14465L6.36243 2.61112L10.6285 10.0006L3.23905 5.7345L1.77258 8.26749L9.16205 12.5336H0.629883V15.4665H9.16205L1.77258 19.7326L3.23905 22.2656L10.6285 17.9995L6.36243 25.3889L8.89542 26.8554L13.1615 19.4659V27.9981H16.0944V19.2945L20.4367 26.8173L22.8173 25.4461L18.4751 17.9043L26.0169 22.2656L27.4833 19.7326L20.0939 15.4665H28.626V12.5336Z" fill="#231F20"/>
</g>
</g>
</g>
<defs>
<clipPath id="clip0_110_133">
<rect width="86.75" height="28" fill="white" transform="translate(0.629883)"/>
</clipPath>
<clipPath id="clip1_110_133">
<rect width="86.75" height="28" fill="white" transform="translate(0.629883)"/>
</clipPath>
<clipPath id="clip2_110_133">
<rect width="86.75" height="27.9962" fill="white" transform="translate(0.629883 0.00195312)"/>
</clipPath>
</defs>
</svg>
