<svg width="152" height="28" viewBox="0 0 152 28" fill="none" xmlns="http://www.w3.org/2000/svg">
<g clip-path="url(#clip0_110_145)">
<g clip-path="url(#clip1_110_145)">
<g clip-path="url(#clip2_110_145)">
<path d="M18.3456 23.3707C18.5985 21.8785 18.0674 20.3356 16.9292 19.3239C16.1199 18.5651 15.0323 18.1352 13.9194 18.1352C13.2618 18.1352 12.6295 17.9834 12.0478 17.6799C11.289 17.2752 10.682 16.6429 10.2773 15.8841C10.505 15.3024 10.6061 14.6701 10.6061 13.9872C10.6061 15.8336 12.0731 17.3258 13.8941 17.3258H13.97C15.7658 17.3005 17.2075 15.8083 17.2075 13.9872C17.2075 13.3296 17.3339 12.6973 17.5363 12.0903C17.8904 11.1545 18.4974 10.3198 19.3067 9.71279C20.2931 8.95402 21.5072 8.59992 22.7212 8.65051C21.8587 7.17693 20.6415 5.94233 19.1803 5.05898V5.3119C19.1803 6.47536 18.8009 7.58822 18.118 8.52404C17.9156 8.347 17.688 8.19524 17.4604 8.06878C18.0674 7.28471 18.3709 6.3236 18.3709 5.3372C18.3709 4.75547 18.2697 4.17374 18.0421 3.61731C17.3845 1.99859 15.8417 0.860432 14.0206 0.809847H13.7677C12.6548 0.809847 11.5672 0.961601 10.505 1.26511C6.0282 2.47915 2.51255 6.04538 1.3238 10.5727C0.565029 11.5086 0.109765 12.6467 0.0844727 13.8608C0.16035 6.24772 6.23054 0.0763656 13.7677 0.000488281H14.1218C21.6083 0.126951 27.6532 6.24772 27.7291 13.8608V14.1643C27.7038 15.3783 27.2739 16.5165 26.4898 17.4523C25.7816 18.3122 24.7952 18.9445 23.7076 19.1975C23.3029 19.2986 22.873 19.3492 22.4683 19.3492C21.3301 19.3492 20.2173 18.9698 19.3067 18.2869C18.9779 18.7422 18.5733 19.1216 18.1433 19.4757C18.8768 20.4621 19.2561 21.7014 19.1803 22.9407C20.6415 22.0574 21.8587 20.8228 22.7212 19.3492C23.05 19.3239 23.3788 19.2733 23.7076 19.1975C22.6706 21.2209 21.0266 22.8649 19.0285 23.9271C17.4604 24.7618 15.6899 25.1918 13.9194 25.1918C13.1354 25.1918 12.4019 24.8124 11.9466 24.2054C11.6178 23.7501 11.4408 23.219 11.4408 22.6625C11.4408 21.9037 11.7949 21.1956 12.326 20.7403C12.8319 20.8668 13.3883 20.9426 13.9447 20.9426C13.0089 20.9426 12.2248 21.7267 12.2248 22.6878C12.2248 23.6489 12.9836 24.433 13.9447 24.433H13.97C14.9058 24.433 15.6899 23.6489 15.6899 22.6878C15.6899 21.7267 14.9311 20.9426 13.97 20.9426C12.7054 20.9426 11.4914 20.5885 10.4038 19.9309C10.1762 19.7792 9.94853 19.6274 9.74619 19.4757C9.29092 19.1216 8.91154 18.7169 8.55744 18.2869C8.75978 18.1352 8.96212 17.9581 9.16446 17.7558C9.64502 18.3881 10.252 18.9445 10.9602 19.3492C11.8708 19.8804 12.9077 20.1586 13.97 20.1586C14.577 20.1586 15.1588 20.3862 15.5887 20.7656C16.1199 21.2209 16.474 21.929 16.474 22.6878C16.474 23.2442 16.2969 23.7754 15.9681 24.2307C16.8028 24.0536 17.6121 23.8007 18.3709 23.4213L18.3456 23.3707ZM23.9858 11.9891C23.8341 11.1292 23.5559 10.3198 23.1765 9.53574C21.9624 9.3334 20.7231 9.6622 19.762 10.3957C18.6491 11.2556 17.9915 12.5961 17.9915 14.0125C17.9915 14.6954 17.8398 15.3277 17.5363 15.9094C17.1569 16.6682 16.5246 17.3005 15.7911 17.7052C16.474 17.9581 17.081 18.3628 17.6121 18.8687C18.2445 18.3881 18.7756 17.7558 19.155 17.0729C19.6861 16.1371 19.9643 15.1001 19.9643 14.0125C19.9643 13.3802 20.192 12.8238 20.5714 12.3685C21.0519 11.8121 21.7348 11.4833 22.4683 11.4833C23.0247 11.4833 23.5559 11.6603 23.9858 11.9891ZM24.1629 13.9366C24.1376 13.0261 23.3788 12.2926 22.443 12.2673C21.4819 12.2673 20.7231 13.0514 20.7231 13.9872V14.0378C20.7484 14.9736 21.5072 15.7071 22.443 15.7071C23.4041 15.7071 24.1629 14.923 24.1629 13.9872V13.9366ZM20.5714 15.6565C20.3943 16.3394 20.1414 17.0223 19.762 17.6293C20.7231 18.3881 21.9624 18.6916 23.1765 18.4893C23.5053 18.4387 23.8341 18.3375 24.1629 18.2111C25.8069 17.5282 26.8945 15.9347 26.9451 14.139V13.9113C26.9451 12.7985 26.7933 11.6856 26.4898 10.598C25.301 6.09597 21.7854 2.52973 17.3339 1.2904C18.1939 2.02388 18.7756 3.01029 19.0538 4.09787V4.12316C21.3807 5.36249 23.1765 7.38588 24.1629 9.83925C24.694 11.1292 24.9722 12.5455 24.9722 14.0378C24.9722 14.8472 24.5929 15.5806 23.9858 16.0359C23.5559 16.3647 23.0247 16.567 22.4683 16.567C21.7095 16.5417 21.0266 16.1877 20.5714 15.6565ZM13.7171 27.9992C6.23054 27.8728 0.185642 21.7267 0.109765 14.139V13.8355C0.135058 12.6214 0.565029 11.4833 1.3491 10.5474C2.05728 9.6875 3.04369 9.08048 4.13126 8.80226C4.53594 8.70109 4.96592 8.65051 5.37059 8.65051C6.50875 8.65051 7.62162 9.02989 8.53215 9.71279C8.86095 9.25753 9.26563 8.87814 9.6956 8.52404C8.96212 7.53764 8.58274 6.29831 8.63332 5.05898C7.17212 5.94233 5.95491 7.17693 5.09238 8.65051C4.76358 8.6758 4.43477 8.72638 4.10597 8.80226C5.14296 6.77886 6.78697 5.13486 8.78508 4.07257C10.3532 3.23792 12.1237 2.80795 13.8941 2.80795C14.6782 2.80795 15.4117 3.18734 15.867 3.79436C16.1958 4.22433 16.3728 4.75547 16.3728 5.3372C16.3728 6.12126 16.0187 6.80416 15.4876 7.25942C14.9564 7.13296 14.4253 7.05708 13.8689 7.05708C14.8047 7.05708 15.5887 6.27302 15.5887 5.3119C15.5887 4.35079 14.83 3.56672 13.8689 3.56672H13.8436C12.9077 3.56672 12.1237 4.35079 12.1237 5.3119C12.1237 6.27302 12.8825 7.05708 13.8436 7.05708C15.1082 7.05708 16.3222 7.41118 17.4098 8.06878C17.6374 8.22053 17.8651 8.37229 18.0674 8.52404C18.4974 8.87814 18.9021 9.28282 19.2561 9.71279C19.0538 9.86454 18.8515 10.0416 18.6491 10.2439C18.1686 9.61162 17.5616 9.05519 16.8534 8.65051C15.9428 8.11936 14.9058 7.84115 13.8436 7.84115C13.2618 7.84115 12.6801 7.61352 12.2248 7.23413C11.6684 6.75357 11.3396 6.04538 11.3396 5.3119C11.3396 4.73018 11.542 4.19903 11.8455 3.76906C11.0108 3.94611 10.1762 4.22433 9.41739 4.57842C9.16446 6.07068 9.6956 7.61352 10.8338 8.62521C11.6431 9.38399 12.7307 9.81396 13.8436 9.81396C14.5012 9.81396 15.1335 9.96571 15.7152 10.2692C16.474 10.6739 17.081 11.3062 17.4857 12.065C17.258 12.672 17.1316 13.3043 17.1569 13.9619C17.1569 12.1156 15.6899 10.6233 13.8689 10.6233H13.8436C12.0478 10.6486 10.6061 12.1409 10.6061 13.9619C10.6061 14.6195 10.4797 15.2518 10.2773 15.8589C9.92324 16.7947 9.31622 17.6293 8.50686 18.2363C7.52045 18.9951 6.30642 19.3492 5.09238 19.2986C5.95491 20.7722 7.17212 22.0068 8.63332 22.8902C8.58274 21.6508 8.93683 20.4368 9.67031 19.4504C9.87265 19.6274 10.1003 19.7792 10.3279 19.9056C9.7209 20.6897 9.41739 21.6508 9.41739 22.6372C9.41739 23.219 9.51856 23.8007 9.74619 24.3571C10.4038 25.9758 11.9466 27.114 13.7677 27.1646H13.9953C15.1082 27.1646 16.1958 27.0128 17.258 26.7093C21.7348 25.4953 25.2505 21.929 26.4392 17.4017C27.198 16.4659 27.6532 15.3277 27.6785 14.1137C27.6027 21.7267 21.5325 27.8981 13.9953 27.9739H13.6918C13.7677 27.9992 13.7171 27.9992 13.7171 27.9992ZM10.505 26.7346C9.64502 26.0011 9.06329 25.0147 8.78508 23.9271V23.9019C6.45817 22.6625 4.66241 20.6391 3.676 18.1858C3.14486 16.8453 2.86664 15.4289 2.86664 13.9872C2.86664 13.1779 3.24603 12.4444 3.85305 11.9891C4.28302 11.6603 4.78887 11.458 5.37059 11.458C6.12937 11.458 6.81226 11.8121 7.26753 12.3432C7.44458 11.635 7.6975 10.9774 8.07689 10.3704C7.11577 9.61162 5.87644 9.30811 4.66241 9.51045C4.30831 9.56103 4.0048 9.6622 3.676 9.78867C2.03199 10.4716 0.944416 12.065 0.893831 13.8608V14.1137C0.893831 15.2265 1.04559 16.3394 1.3491 17.427C2.56313 21.9543 6.05349 25.5206 10.505 26.7346ZM4.66241 18.4893C5.87644 18.6916 7.11577 18.3628 8.07689 17.6293C9.18975 16.7694 9.84736 15.4289 9.84736 14.0125C9.84736 13.3296 9.99911 12.6973 10.3026 12.1156C10.682 11.3568 11.3143 10.7245 12.0478 10.3198H12.0225C11.3396 10.0669 10.7326 9.6622 10.2015 9.15636C9.56914 9.63691 9.038 10.2692 8.65861 10.9521C8.12747 11.8879 7.84926 12.9249 7.84926 14.0125C7.84926 14.6448 7.62162 15.2013 7.24224 15.6565C6.76168 16.2129 6.07878 16.5418 5.3453 16.5418C4.76358 16.5418 4.25773 16.3394 3.82776 16.0106C4.03009 16.8706 4.30831 17.7052 4.66241 18.4893ZM3.676 14.0884C3.72659 14.9989 4.46007 15.7577 5.39589 15.7577C6.357 15.7577 7.11577 14.9736 7.11577 14.0378V13.9872C7.09048 13.0514 6.33171 12.3179 5.39589 12.3179C4.43477 12.3179 3.676 13.102 3.676 14.0631V14.0884ZM38.8325 6.67769H42.6264L46.1673 16.3394H46.2179L49.7083 6.67769H53.5021V20.285H51.0993V9.3587H51.0741L46.9514 20.285H45.2568L41.1847 9.3587H41.1594V20.285H38.8578L38.8325 6.67769ZM60.1287 6.67769H69.1329V8.80226H62.5568V12.2673H68.8041V14.2907H62.5315V18.1352H69.4617V20.285H60.1035L60.1287 6.67769ZM79.8569 12.5455C80.211 12.5455 80.5398 12.5203 80.8939 12.4697C81.2227 12.4191 81.5262 12.3179 81.8297 12.1914C82.1079 12.0397 82.3355 11.8374 82.5126 11.5844C82.6896 11.3315 82.7908 10.9774 82.7908 10.5727C82.7908 10.1933 82.7149 9.88984 82.5379 9.6622C82.3608 9.43457 82.1585 9.23223 81.9055 9.10577C81.6273 8.95402 81.3491 8.85285 81.0203 8.82755C80.7168 8.77697 80.388 8.75168 80.0592 8.75168H77.8588V12.5708C77.884 12.5455 79.8569 12.5455 79.8569 12.5455ZM75.456 6.67769H80.1857C80.818 6.67769 81.4503 6.75357 82.0573 6.88003C82.639 7.0065 83.1702 7.23413 83.6507 7.53764C84.106 7.84115 84.5107 8.27112 84.7636 8.75168C85.0418 9.25752 85.1936 9.86454 85.1936 10.5727C85.1936 11.5591 84.9154 12.3685 84.3589 12.9755C83.8025 13.6078 83.0437 14.0125 82.0826 14.2401L85.6994 20.2597H82.7908L79.6545 14.4931H77.884V20.2597H75.456V6.67769ZM100.976 9.86454C100.622 9.38399 100.141 9.0046 99.585 8.80226C99.0538 8.57463 98.4721 8.47346 97.8904 8.47346C97.2328 8.47346 96.5752 8.59992 95.9682 8.85285C95.4117 9.10577 94.9059 9.45986 94.4759 9.91513C94.0459 10.3704 93.7171 10.9015 93.5148 11.4833C93.2871 12.1156 93.1607 12.7732 93.186 13.4308C93.186 14.1643 93.2871 14.8472 93.5148 15.4542C93.7424 16.0612 94.0459 16.5923 94.4506 17.0476C94.8553 17.4776 95.3358 17.8317 95.8923 18.0846C96.4487 18.3375 97.081 18.4387 97.7892 18.4387C98.5227 18.4387 99.155 18.2869 99.7367 18.0087C100.268 17.7305 100.748 17.3511 101.103 16.8706L103.05 18.2363C102.468 18.9951 101.71 19.5768 100.85 19.9815C99.9896 20.3862 98.9527 20.6138 97.7892 20.6138C96.7269 20.6138 95.7405 20.4368 94.8553 20.0827C93.9953 19.7539 93.2113 19.248 92.5537 18.6157C91.8961 17.9581 91.3902 17.1994 91.0614 16.3394C90.7073 15.4542 90.5303 14.4931 90.5303 13.4308C90.5303 12.3432 90.7073 11.3568 91.0867 10.4716C91.4661 9.58633 91.9719 8.85285 92.6295 8.24583C93.3124 7.61352 94.0965 7.13296 94.9565 6.82945C96.3223 6.3236 97.8145 6.19714 99.2309 6.45006C99.7114 6.52594 100.167 6.6524 100.597 6.82945C101.027 7.0065 101.431 7.20884 101.836 7.46176C102.215 7.71469 102.544 8.01819 102.822 8.37229C102.822 8.42287 100.976 9.86454 100.976 9.86454ZM118.984 15.2771C118.984 16.0865 118.833 16.8453 118.554 17.5029C118.301 18.1352 117.897 18.7169 117.391 19.1722C116.885 19.6274 116.303 20.0068 115.671 20.2344C114.988 20.4874 114.229 20.6138 113.496 20.6138C112.762 20.6138 112.029 20.4874 111.321 20.2344C110.688 20.0068 110.081 19.6274 109.575 19.1722C109.07 18.6916 108.69 18.1352 108.412 17.5029C108.134 16.8453 108.007 16.1118 108.007 15.2771V6.67769H110.435V15.176C110.435 15.5806 110.486 15.96 110.587 16.3647C110.688 16.7441 110.865 17.0982 111.093 17.4017C111.321 17.7052 111.649 17.9581 112.029 18.1605C112.408 18.3628 112.914 18.4387 113.471 18.4387C114.052 18.4387 114.533 18.3375 114.912 18.1605C115.292 17.9834 115.595 17.7305 115.848 17.4017C116.076 17.0982 116.253 16.7441 116.354 16.3647C116.455 15.9853 116.506 15.5806 116.506 15.176V6.67769H118.934C118.984 6.67769 118.984 15.2771 118.984 15.2771ZM129.885 12.5455C130.239 12.5455 130.568 12.5203 130.922 12.4697C131.276 12.4191 131.58 12.3179 131.858 12.1914C132.136 12.0397 132.364 11.8374 132.541 11.5844C132.718 11.3315 132.819 10.9774 132.819 10.5727C132.819 10.1933 132.743 9.88984 132.566 9.6622C132.415 9.43457 132.187 9.23223 131.934 9.10577C131.656 8.95402 131.378 8.85285 131.049 8.82755C130.745 8.77697 130.416 8.75168 130.088 8.75168H127.887V12.5708C127.913 12.5455 129.885 12.5455 129.885 12.5455ZM125.484 6.67769H130.214C130.846 6.67769 131.479 6.75357 132.086 6.88003C132.667 7.0065 133.199 7.23413 133.679 7.53764C134.134 7.84115 134.514 8.24583 134.792 8.75168C135.07 9.25752 135.222 9.86454 135.222 10.5727C135.222 11.5591 134.944 12.3685 134.387 12.9755C133.831 13.6078 133.072 14.0125 132.111 14.2401L135.728 20.2597H132.819L129.683 14.4931H127.913V20.2597H125.484V6.67769ZM144.353 14.3919L139.244 6.70299H142.203L145.617 12.4191L149.082 6.70299H151.89L146.781 14.3919V20.285H144.353V14.3919Z" fill="#1F1F30"/>
</g>
</g>
</g>
<defs>
<clipPath id="clip0_110_145">
<rect width="151.78" height="28" fill="white" transform="translate(0.109863)"/>
</clipPath>
<clipPath id="clip1_110_145">
<rect width="151.78" height="28" fill="white" transform="translate(0.109863)"/>
</clipPath>
<clipPath id="clip2_110_145">
<rect width="151.78" height="27.9987" fill="white" transform="translate(0.109863 0.000488281)"/>
</clipPath>
</defs>
</svg>
