<svg width="182" height="32" viewBox="0 0 182 32" fill="none" xmlns="http://www.w3.org/2000/svg">
<g clip-path="url(#clip0_110_167)">
<g clip-path="url(#clip1_110_167)">
<mask id="mask0_110_167" style="mask-type:luminance" maskUnits="userSpaceOnUse" x="0" y="0" width="182" height="32">
<path d="M0.824219 0H181.176V32H0.824219V0Z" fill="white"/>
</mask>
<g mask="url(#mask0_110_167)">
<path d="M9.05527 18.7529L4.59827 23.7359C4.443 23.9115 4.2521 24.052 4.03829 24.148C3.82448 24.2441 3.59266 24.2934 3.35827 24.2929H1.43227C1.27048 24.2929 1.11533 24.3571 1.00093 24.4715C0.886533 24.5859 0.822266 24.7411 0.822266 24.9029V26.4169C0.822266 26.7529 1.09627 27.0269 1.43227 27.0269H3.35627C3.9734 27.0263 4.5835 26.8958 5.14689 26.644C5.71027 26.3921 6.21433 26.0244 6.62627 25.5649L10.8833 20.8029L9.05427 18.7629L9.05527 18.7529ZM40.1623 24.2929H38.2383C37.7653 24.2929 37.3133 24.0929 36.9983 23.7359L32.5403 18.7529L30.7103 20.7929L34.9683 25.5549C35.3811 26.0132 35.8853 26.3799 36.4486 26.6314C37.0118 26.8829 37.6215 27.0135 38.2383 27.0149H40.1623C40.3239 27.0149 40.4789 26.9508 40.5933 26.8366C40.7076 26.7224 40.772 26.5675 40.7723 26.4059V24.8919C40.7723 24.7301 40.708 24.5749 40.5936 24.4605C40.4792 24.3462 40.324 24.2819 40.1623 24.2819V24.2929ZM20.7973 24.7559C20.2656 24.7549 19.74 24.6421 19.2547 24.4249C18.7694 24.2076 18.3352 23.8908 17.9803 23.4949L4.59827 8.53488C4.44287 8.35952 4.25192 8.21925 4.03812 8.12339C3.82433 8.02752 3.59257 7.97826 3.35827 7.97888H1.43227C1.27048 7.97888 1.11533 7.91461 1.00093 7.80022C0.886533 7.68582 0.822266 7.53066 0.822266 7.36888V5.85488C0.822266 5.52888 1.09627 5.25488 1.43227 5.25488H3.35627C4.60727 5.25488 5.79627 5.79188 6.62627 6.71688L20.0083 21.6769C20.2813 21.9809 20.6183 22.0339 20.7963 22.0339C20.9763 22.0339 21.3123 21.9919 21.5853 21.6759L34.9683 6.71688C35.3788 6.25571 35.8826 5.88698 36.4463 5.63512C37.01 5.38325 37.6208 5.25399 38.2383 5.25588H40.1613C40.323 5.25588 40.4782 5.32015 40.5926 5.43455C40.707 5.54894 40.7713 5.7041 40.7713 5.86588V7.37888C40.7713 7.54066 40.707 7.69582 40.5926 7.81022C40.4782 7.92462 40.323 7.98888 40.1613 7.98888H38.2383C37.7653 7.98888 37.3133 8.18888 36.9983 8.54588L23.6153 23.5059C23.2602 23.9019 22.8258 24.2188 22.3404 24.4361C21.8549 24.6533 21.3291 24.766 20.7973 24.7669V24.7559Z" fill="#222427"/>
<path fill-rule="evenodd" clip-rule="evenodd" d="M75.1261 14.9267C75.1261 10.9117 77.1661 8.5667 80.1301 8.5667C83.0941 8.5667 84.0621 10.7327 84.0621 13.1927V25.6187H86.6901V12.6357C86.6901 8.88269 84.6301 6.0127 80.6661 6.0127C77.9221 6.0127 75.9461 7.39969 74.5791 9.64969C73.7281 7.39969 71.7831 6.0127 69.2071 6.0127C66.8841 6.0127 64.9921 7.1377 63.5731 9.2507V6.3597H60.9131V25.6077H63.5731V14.9167C63.5731 10.9007 65.5811 8.5567 68.5561 8.5567C71.5311 8.5567 72.4871 10.7217 72.4871 13.1817V25.6077H75.1151V14.9167L75.1261 14.9267ZM91.5991 25.6197H94.2271V6.3697H91.6001V25.6177L91.5991 25.6197ZM105.213 6.0237C101.418 6.0237 98.6211 8.0217 98.6211 11.4907C98.6211 15.1277 101.649 16.2307 104.845 16.9257C107.757 17.5877 109.912 18.0297 109.912 20.3107C109.912 22.3917 108.188 23.6007 105.644 23.6007C103.405 23.6007 101.26 22.7067 99.9561 20.5937L97.7801 22.0137C99.2001 24.4097 101.88 25.9767 105.444 25.9767C109.807 25.9767 112.603 23.6117 112.603 20.0787C112.603 16.2107 109.26 15.1907 105.644 14.3287C103.236 13.7507 101.292 13.2887 101.292 11.2387C101.292 9.1887 103.1 8.4317 105.087 8.4317C107.242 8.4317 109.081 9.29369 110.269 10.9117L112.309 9.4407C110.669 7.2117 108.093 6.0347 105.234 6.0347L105.213 6.0237ZM122.327 6.0237C118.532 6.0237 115.736 8.0217 115.736 11.4907C115.736 15.1277 118.763 16.2307 121.959 16.9257C124.871 17.5877 127.026 18.0297 127.026 20.3107C127.026 22.3917 125.302 23.6007 122.758 23.6007C120.519 23.6007 118.374 22.7067 117.071 20.5937L114.895 22.0137C116.314 24.4097 118.995 25.9767 122.558 25.9767C126.921 25.9767 129.717 23.6117 129.717 20.0787C129.717 16.2107 126.374 15.1907 122.758 14.3287C120.351 13.7507 118.395 13.2887 118.395 11.2387C118.395 9.1887 120.203 8.4317 122.19 8.4317C124.345 8.4317 126.185 9.29369 127.373 10.9117L129.412 9.4407C127.772 7.2117 125.197 6.0347 122.338 6.0347L122.327 6.0237ZM133.565 25.6197H136.193V6.3697H133.565V25.6177V25.6197ZM153.57 6.3697L147.715 22.4437L141.943 6.3697H139.084L146.327 25.6177H149.071L156.314 6.3697H153.57ZM175.079 16.6297C175.131 16.4297 175.163 15.9367 175.163 15.5367C175.163 10.1017 172.02 6.0227 166.648 6.0227C161.276 6.0227 157.796 10.1547 157.796 16.0207C157.796 21.8867 161.328 25.9647 166.91 25.9647C170.138 25.9647 172.566 24.6617 174.322 22.4117L172.314 20.7617C171.073 22.3487 169.37 23.4517 166.963 23.4517C163.115 23.4517 160.708 20.6457 160.624 16.6297H175.079ZM160.624 14.2857C160.908 10.9317 163.231 8.45169 166.627 8.45169C169.738 8.45169 172.177 10.5017 172.398 14.2857H160.624Z" fill="#222427"/>
<mask id="mask1_110_167" style="mask-type:luminance" maskUnits="userSpaceOnUse" x="60" y="6" width="116" height="20">
<path d="M75.1261 14.9267C75.1261 10.9117 77.1661 8.5667 80.1301 8.5667C83.0941 8.5667 84.0621 10.7327 84.0621 13.1927V25.6187H86.6901V12.6357C86.6901 8.88269 84.6301 6.0127 80.6661 6.0127C77.9221 6.0127 75.9461 7.39969 74.5791 9.64969C73.7281 7.39969 71.7831 6.0127 69.2071 6.0127C66.8841 6.0127 64.9921 7.1377 63.5731 9.2507V6.3597H60.9131V25.6077H63.5731V14.9167C63.5731 10.9007 65.5811 8.5567 68.5561 8.5567C71.5311 8.5567 72.4871 10.7217 72.4871 13.1817V25.6077H75.1151V14.9167L75.1261 14.9267ZM91.5991 25.6197H94.2271V6.3697H91.6001V25.6177L91.5991 25.6197ZM105.213 6.0237C101.418 6.0237 98.6211 8.0217 98.6211 11.4907C98.6211 15.1277 101.649 16.2307 104.845 16.9257C107.757 17.5877 109.912 18.0297 109.912 20.3107C109.912 22.3917 108.188 23.6007 105.644 23.6007C103.405 23.6007 101.26 22.7067 99.9561 20.5937L97.7801 22.0137C99.2001 24.4097 101.88 25.9767 105.444 25.9767C109.807 25.9767 112.603 23.6117 112.603 20.0787C112.603 16.2107 109.26 15.1907 105.644 14.3287C103.236 13.7507 101.292 13.2887 101.292 11.2387C101.292 9.1887 103.1 8.4317 105.087 8.4317C107.242 8.4317 109.081 9.29369 110.269 10.9117L112.309 9.4407C110.669 7.2117 108.093 6.0347 105.234 6.0347L105.213 6.0237ZM122.327 6.0237C118.532 6.0237 115.736 8.0217 115.736 11.4907C115.736 15.1277 118.763 16.2307 121.959 16.9257C124.871 17.5877 127.026 18.0297 127.026 20.3107C127.026 22.3917 125.302 23.6007 122.758 23.6007C120.519 23.6007 118.374 22.7067 117.071 20.5937L114.895 22.0137C116.314 24.4097 118.995 25.9767 122.558 25.9767C126.921 25.9767 129.717 23.6117 129.717 20.0787C129.717 16.2107 126.374 15.1907 122.758 14.3287C120.351 13.7507 118.395 13.2887 118.395 11.2387C118.395 9.1887 120.203 8.4317 122.19 8.4317C124.345 8.4317 126.185 9.29369 127.373 10.9117L129.412 9.4407C127.772 7.2117 125.197 6.0347 122.338 6.0347L122.327 6.0237ZM133.565 25.6197H136.193V6.3697H133.565V25.6177V25.6197ZM153.57 6.3697L147.715 22.4437L141.943 6.3697H139.084L146.327 25.6177H149.071L156.314 6.3697H153.57ZM175.079 16.6297C175.131 16.4297 175.163 15.9367 175.163 15.5367C175.163 10.1017 172.02 6.0227 166.648 6.0227C161.276 6.0227 157.796 10.1547 157.796 16.0207C157.796 21.8867 161.328 25.9647 166.91 25.9647C170.138 25.9647 172.566 24.6617 174.322 22.4117L172.314 20.7617C171.073 22.3487 169.37 23.4517 166.963 23.4517C163.115 23.4517 160.708 20.6457 160.624 16.6297H175.079ZM160.624 14.2857C160.908 10.9317 163.231 8.45169 166.627 8.45169C169.738 8.45169 172.177 10.5017 172.398 14.2857H160.624Z" fill="white"/>
</mask>
<g mask="url(#mask1_110_167)">
<path d="M181.186 0H54.9004V32H181.186V0Z" fill="#222427"/>
</g>
</g>
</g>
</g>
<defs>
<clipPath id="clip0_110_167">
<rect width="182" height="32" fill="white"/>
</clipPath>
<clipPath id="clip1_110_167">
<rect width="182" height="32" fill="white"/>
</clipPath>
</defs>
</svg>
