<svg width="134" height="34" viewBox="0 0 134 34" fill="none" xmlns="http://www.w3.org/2000/svg">
<g clip-path="url(#clip0_110_150)">
<g clip-path="url(#clip1_110_150)">
<mask id="mask0_110_150" style="mask-type:luminance" maskUnits="userSpaceOnUse" x="0" y="0" width="134" height="32">
<path d="M0.886719 0H133.113V32H0.886719V0Z" fill="white"/>
</mask>
<g mask="url(#mask0_110_150)">
<path d="M128.282 4.696C128.823 5.239 129.462 5.51 130.199 5.51C130.959 5.51 131.609 5.239 132.15 4.696C132.691 4.153 132.962 3.512 132.962 2.773C132.962 2.033 132.691 1.386 132.15 0.832C131.609 0.277 130.959 0 130.199 0C129.462 0 128.823 0.277 128.282 0.832C127.741 1.386 127.47 2.033 127.47 2.772C127.47 3.512 127.741 4.153 128.282 4.696ZM70.0144 11.785C70.0144 11.8123 70.0035 11.8385 69.9842 11.8578C69.9649 11.8771 69.9387 11.888 69.9114 11.888H66.1114V19.096C66.1114 19.697 66.2614 20.136 66.5614 20.413C66.8604 20.691 67.2974 20.846 67.8734 20.881C68.3994 20.913 69.0424 20.911 69.8004 20.875L69.8194 20.874L69.8544 20.872L69.9064 20.869C69.9203 20.8683 69.9342 20.8705 69.9473 20.8754C69.9604 20.8802 69.9724 20.8877 69.9825 20.8973C69.9926 20.907 70.0006 20.9186 70.0061 20.9314C70.0116 20.9442 70.0144 20.958 70.0144 20.972V24.827C70.0144 24.879 69.9744 24.923 69.9234 24.929L69.8534 24.936C66.8764 25.255 64.7714 24.96 63.5384 24.052C62.2834 23.128 61.6564 21.476 61.6564 19.096V11.888H58.7544C58.7271 11.888 58.7009 11.8771 58.6815 11.8578C58.6622 11.8385 58.6514 11.8123 58.6514 11.785V7.693C58.6514 7.637 58.6974 7.591 58.7544 7.591H61.6564V4.728C61.6564 4.647 61.7044 4.573 61.7784 4.54L65.9674 2.69C66.0354 2.66 66.1114 2.71 66.1114 2.785V7.59H69.9114C69.9684 7.59 70.0144 7.636 70.0144 7.692V11.785ZM78.0934 10.57C78.5084 9.462 79.1934 8.63 80.1484 8.075C81.088 7.53193 82.1541 7.24568 83.2394 7.245C83.2974 7.245 83.3434 7.29 83.3434 7.348V12.05C83.3432 12.0732 83.3382 12.0961 83.3287 12.1172C83.3192 12.1383 83.3054 12.1573 83.2882 12.1728C83.271 12.1883 83.2507 12.2001 83.2287 12.2074C83.2067 12.2146 83.1834 12.2172 83.1604 12.215C81.8754 12.098 80.7224 12.382 79.7004 13.066C78.6294 13.782 78.0934 14.972 78.0934 16.636V24.816C78.0931 24.8431 78.0821 24.8691 78.0629 24.8882C78.0436 24.9073 78.0175 24.918 77.9904 24.918H73.7404C73.7134 24.9177 73.6876 24.9069 73.6685 24.8878C73.6495 24.8688 73.6386 24.843 73.6384 24.816V7.693C73.6384 7.636 73.6844 7.59 73.7414 7.59H77.9914C78.0474 7.59 78.0934 7.636 78.0934 7.693V10.571V10.57Z" fill="#202020"/>
<path fill-rule="evenodd" clip-rule="evenodd" d="M99.1621 7.59C99.135 7.59 99.1089 7.60072 99.0896 7.61982C99.0704 7.63892 99.0594 7.66486 99.0591 7.692V9.634C97.7241 7.948 95.8471 7.104 93.4291 7.104C91.1271 7.104 89.1531 7.988 87.5061 9.756C85.8601 11.523 85.0361 13.689 85.0361 16.254C85.0361 18.818 85.8601 20.984 87.5061 22.752C89.1531 24.519 91.1261 25.403 93.4301 25.403C95.8471 25.403 97.7241 24.56 99.0601 22.873V24.815C99.0601 24.872 99.1051 24.918 99.1621 24.918H103.412C103.439 24.918 103.466 24.9072 103.485 24.8878C103.504 24.8685 103.515 24.8423 103.515 24.815V7.692C103.515 7.66486 103.504 7.63892 103.485 7.61982C103.465 7.60072 103.439 7.59 103.412 7.59H99.1621ZM90.8401 19.789C91.7381 20.69 92.8781 21.14 94.2601 21.14C95.6401 21.14 96.7861 20.684 97.6961 19.772C98.6061 18.859 99.0601 17.687 99.0601 16.254C99.0601 14.821 98.6051 13.649 97.6961 12.736C96.7861 11.824 95.6411 11.367 94.2591 11.367C92.8781 11.367 91.7381 11.824 90.8391 12.737C89.9421 13.649 89.4931 14.822 89.4931 16.254C89.4931 17.686 89.9421 18.864 90.8401 19.789ZM122.867 9.756C121.22 7.988 119.234 7.104 116.909 7.104C114.491 7.104 112.626 7.948 111.313 9.634V7.692C111.313 7.66503 111.302 7.63924 111.283 7.62017C111.264 7.60109 111.238 7.59026 111.211 7.59H106.961C106.934 7.59 106.908 7.60072 106.889 7.61982C106.869 7.63892 106.858 7.66486 106.858 7.692V31.746C106.858 31.803 106.904 31.849 106.961 31.849H111.211C111.238 31.8487 111.264 31.8378 111.283 31.8185C111.302 31.7992 111.313 31.7731 111.313 31.746V22.873C112.626 24.56 114.491 25.403 116.909 25.403C119.234 25.403 121.22 24.519 122.867 22.752C124.513 20.984 125.336 18.818 125.336 16.254C125.336 13.689 124.513 11.524 122.867 9.756ZM112.66 19.789C113.558 20.69 114.698 21.14 116.079 21.14C117.461 21.14 118.607 20.684 119.516 19.772C120.426 18.859 120.88 17.687 120.88 16.254C120.88 14.821 120.426 13.649 119.516 12.736C118.607 11.824 117.461 11.367 116.079 11.367C114.698 11.367 113.558 11.824 112.66 12.737C111.762 13.649 111.313 14.822 111.313 16.254C111.313 17.686 111.762 18.864 112.66 19.789Z" fill="#202020"/>
<path d="M128.093 24.918C128.079 24.918 128.066 24.9153 128.053 24.9102C128.041 24.905 128.029 24.8974 128.02 24.8878C128.01 24.8783 128.003 24.8669 127.998 24.8544C127.992 24.8419 127.99 24.8285 127.99 24.815V7.693C127.99 7.636 128.036 7.59 128.093 7.59H132.342C132.399 7.59 132.445 7.636 132.445 7.693V24.815C132.445 24.8285 132.442 24.8419 132.437 24.8544C132.432 24.8669 132.424 24.8783 132.415 24.8878C132.405 24.8974 132.394 24.905 132.381 24.9102C132.369 24.9153 132.355 24.918 132.342 24.918H128.093ZM48.5597 13.637C47.9497 13.348 47.6447 12.973 47.6447 12.511C47.6447 12.071 47.8347 11.725 48.2147 11.471C48.5947 11.217 49.0727 11.09 49.6477 11.09C50.7517 11.09 51.5857 11.522 52.1497 12.385C52.1897 12.445 52.2657 12.47 52.3317 12.441L56.0907 10.771C56.1038 10.7651 56.1155 10.7565 56.1251 10.7458C56.1346 10.7351 56.1418 10.7225 56.1462 10.7088C56.1505 10.6951 56.1519 10.6807 56.1503 10.6664C56.1487 10.6521 56.144 10.6384 56.1367 10.626C56.0937 10.5527 56.0497 10.4801 56.0047 10.408C55.3607 9.392 54.5267 8.634 53.4817 8.058C52.3307 7.422 51.0517 7.104 49.6477 7.104C47.7827 7.104 46.2227 7.595 44.9677 8.577C43.7127 9.559 43.0857 10.905 43.0857 12.615C43.0857 13.747 43.3907 14.688 44.0007 15.439C44.6107 16.19 45.3537 16.739 46.2287 17.085C47.1037 17.432 47.9787 17.721 48.8537 17.952C49.7287 18.183 50.4707 18.442 51.0817 18.732C51.6917 19.02 51.9967 19.396 51.9967 19.858C51.9967 20.852 51.2027 21.348 49.6137 21.348C48.1007 21.348 47.0537 20.788 46.4697 19.666C46.4462 19.6194 46.4058 19.5835 46.3567 19.5657C46.3077 19.5478 46.2537 19.5494 46.2057 19.57L42.4567 21.236C42.4443 21.2417 42.4331 21.2498 42.4239 21.2599C42.4146 21.2699 42.4075 21.2817 42.4028 21.2945C42.3982 21.3074 42.3961 21.321 42.3968 21.3347C42.3975 21.3483 42.4008 21.3617 42.4067 21.374C42.4207 21.406 42.4367 21.438 42.4487 21.462C43.7587 24.089 46.1467 25.403 49.6137 25.403C51.5937 25.403 53.2457 24.923 54.5697 23.965C55.8937 23.005 56.5557 21.637 56.5557 19.858C56.5557 18.68 56.2507 17.698 55.6407 16.912C55.0307 16.127 54.2877 15.566 53.4127 15.232C52.5551 14.9025 51.6786 14.6246 50.7877 14.4C49.9127 14.18 49.1707 13.926 48.5597 13.637ZM0.886719 11.093C0.886719 5.863 0.886719 3.249 2.51072 1.625C4.13572 0 6.75072 0 11.9797 0H21.7927C27.0227 0 29.6377 0 31.2627 1.625C32.8867 3.249 32.8867 5.864 32.8867 11.093V20.907C32.8867 26.137 32.8867 28.751 31.2617 30.375C29.6367 32 27.0217 32 21.7927 32H11.9797C6.74972 32 4.13572 32 2.51072 30.375C0.886719 28.751 0.886719 26.136 0.886719 20.907V11.093Z" fill="#202020"/>
<path fill-rule="evenodd" clip-rule="evenodd" d="M22.9664 9.70703H12.1924V15.2H17.6864V20.694H23.1794V9.92003C23.1794 9.86354 23.1569 9.80936 23.117 9.76942C23.0771 9.72947 23.0229 9.70703 22.9664 9.70703Z" fill="white"/>
<path d="M17.6857 15.2002H17.4727V15.4142H17.6857V15.2002Z" fill="white"/>
<path d="M12.1924 15.2002H17.4724C17.5904 15.2002 17.6864 15.2962 17.6864 15.4142V20.6942H12.4064C12.3782 20.6943 12.3504 20.6889 12.3243 20.6782C12.2983 20.6675 12.2747 20.6517 12.2548 20.6318C12.2349 20.6119 12.2191 20.5883 12.2084 20.5622C12.1977 20.5362 12.1923 20.5083 12.1924 20.4802V15.2002Z" fill="white" fill-opacity="0.8"/>
<path d="M17.6853 20.693H23.1793L17.8683 26.005C17.8533 26.0201 17.8342 26.0304 17.8133 26.0346C17.7925 26.0388 17.7709 26.0367 17.7512 26.0285C17.7316 26.0204 17.7148 26.0066 17.7031 25.9888C17.6913 25.9711 17.6851 25.9503 17.6853 25.929V20.693ZM12.1923 15.2H6.95628C6.93531 15.1998 6.91487 15.1934 6.89752 15.1816C6.88016 15.1698 6.86665 15.1532 6.85866 15.1338C6.85067 15.1144 6.84855 15.0931 6.85257 15.0725C6.85659 15.0519 6.86658 15.033 6.88128 15.018L12.1923 9.70703V15.2Z" fill="white" fill-opacity="0.8"/>
</g>
</g>
</g>
<defs>
<clipPath id="clip0_110_150">
<rect width="134" height="32" fill="white"/>
</clipPath>
<clipPath id="clip1_110_150">
<rect width="134" height="32" fill="white"/>
</clipPath>
</defs>
</svg>
