<svg width="21" height="11" viewBox="0 0 21 11" fill="none" xmlns="http://www.w3.org/2000/svg">
<g clip-path="url(#clip0_110_658)">
<mask id="mask0_110_658" style="mask-type:luminance" maskUnits="userSpaceOnUse" x="-22" y="-8" width="64" height="36">
<path d="M-21.083 27.4648H41.2503V-7.33354H-21.083V27.4648Z" fill="white"/>
</mask>
<g mask="url(#mask0_110_658)">
<path d="M19.9728 8.57614V10.9942H14.9306L11.8674 7.59896L11.2724 7.94318L9.52084 5.97453L5.01673 10.9942H0V8.57614H5.47288L0.733252 5.84031L1.94246 3.74569L6.68208 6.48152L3.94571 1.74285L6.04075 0.532907L8.77712 5.27256V-0.199219H11.1957V5.27256L13.932 0.532907L16.0271 1.74285L13.2907 6.48152L18.0303 3.74569L19.2395 5.84031L14.4999 8.57614H19.9728Z" fill="black"/>
<path d="M11.0775 9.94472L9.56339 6.85458L11.1538 8.71718L11.6764 8.36803L13.8335 10.6963L11.6983 9.32972L11.0775 9.94472ZM11.6983 7.91136L11.1538 8.22446L9.55244 6.43359L5.43496 11.0008H14.4978L11.6983 7.91136ZM-4.18038 18.6125C-4.60343 18.6125 -4.97639 18.536 -5.2989 18.383C-5.62191 18.2301 -5.87231 18.0145 -6.05037 17.7361C-6.22854 17.4579 -6.31738 17.1324 -6.31738 16.7595H-5.4409C-5.4409 16.9711 -5.39082 17.1644 -5.29066 17.3397C-5.19049 17.515 -5.04726 17.6542 -4.86072 17.757C-4.6743 17.86 -4.44752 17.9114 -4.18026 17.9114C-3.94646 17.9114 -3.74503 17.8726 -3.5751 17.7946C-3.40529 17.7167 -3.27597 17.6096 -3.187 17.4732C-3.09791 17.337 -3.05337 17.1798 -3.05337 17.0017C-3.05337 16.7958 -3.09927 16.6275 -3.19106 16.4966C-3.28298 16.366 -3.40689 16.2575 -3.56267 16.1711C-3.71845 16.085 -3.90217 16.0071 -4.11357 15.9375C-4.33305 15.8654 -4.5529 15.7945 -4.77311 15.7247C-5.23516 15.5689 -5.57872 15.3713 -5.80414 15.132C-6.02957 14.8929 -6.14216 14.5812 -6.14216 14.1972C-6.14216 13.869 -6.06575 13.5838 -5.91267 13.3417C-5.7596 13.0997 -5.54106 12.9105 -5.25731 12.7742C-4.97344 12.6378 -4.64243 12.5697 -4.26381 12.5697C-3.87989 12.5697 -3.54741 12.6393 -3.26625 12.7783C-2.98532 12.9175 -2.76408 13.1094 -2.60252 13.3542C-2.4412 13.5992 -2.35765 13.8857 -2.35211 14.2139H-3.23708C-3.23708 14.0637 -3.27597 13.9163 -3.35386 13.7715C-3.43187 13.627 -3.54877 13.5086 -3.70455 13.4168C-3.86045 13.3251 -4.05241 13.279 -4.28042 13.279C-4.46979 13.2736 -4.63948 13.3042 -4.78985 13.371C-4.93997 13.4376 -5.05834 13.5351 -5.1446 13.663C-5.23098 13.7911 -5.27405 13.9441 -5.27405 14.1221C-5.27405 14.3003 -5.23516 14.4435 -5.15715 14.552C-5.07926 14.6605 -4.96925 14.7538 -4.82738 14.8315C-4.6855 14.9095 -4.51717 14.9805 -4.32226 15.0443C-4.12759 15.1084 -3.91324 15.1794 -3.67945 15.2573C-3.39569 15.3519 -3.13975 15.4673 -2.91149 15.6036C-2.68336 15.74 -2.50383 15.9153 -2.37303 16.1294C-2.24223 16.3437 -2.17676 16.6177 -2.17676 16.9516C-2.17676 17.2409 -2.25183 17.5107 -2.40219 17.7612C-2.55231 18.0116 -2.77503 18.216 -3.0701 18.3746C-3.36505 18.5333 -3.73519 18.6125 -4.18038 18.6125ZM-0.89951 20.3487L0.127339 18.045H-0.114823L-1.77612 14.3058H-0.866164L0.444559 17.3605L1.77189 14.3058H2.6485L-0.0229058 20.3487H-0.89951ZM3.21613 18.5124V14.3057H3.96747L4.01755 15.0236C4.15118 14.7677 4.33895 14.5674 4.58112 14.4226C4.82315 14.278 5.10555 14.2055 5.42844 14.2055C5.76781 14.2055 6.05722 14.2723 6.29667 14.4058C6.53588 14.5394 6.72095 14.7412 6.85175 15.011C6.98255 15.281 7.04801 15.619 7.04801 16.0251V18.5124H6.21312V16.1085C6.21312 15.7191 6.12699 15.4229 5.95435 15.2197C5.78183 15.0167 5.53131 14.915 5.20301 14.915C4.98595 14.915 4.79104 14.9679 4.61865 15.0736C4.44601 15.1794 4.30832 15.3323 4.20545 15.5327C4.10233 15.733 4.05102 15.978 4.05102 16.2672V18.5124H3.21613ZM9.51073 17.9365C9.68878 17.9365 9.8501 17.9004 9.99493 17.828C10.1392 17.7562 10.266 17.6536 10.3664 17.5276C10.4691 17.4 10.5495 17.2561 10.6044 17.1019C10.6599 16.9462 10.6905 16.7819 10.6962 16.6095V16.5927H9.70268C9.45782 16.5927 9.26155 16.6206 9.11414 16.6763C8.9666 16.7319 8.85955 16.8112 8.79273 16.9141C8.72604 17.017 8.69257 17.1353 8.69257 17.2688C8.69257 17.4024 8.72457 17.5192 8.78855 17.6194C8.85254 17.7195 8.94716 17.7975 9.07242 17.853C9.19769 17.9087 9.34375 17.9365 9.51073 17.9365ZM9.35212 18.6125C9.00696 18.6125 8.72038 18.5541 8.49225 18.4373C8.26399 18.3205 8.0943 18.1632 7.98294 17.9657C7.87158 17.7682 7.81609 17.5526 7.81609 17.3189C7.81609 17.0463 7.88832 16.8112 8.03302 16.6136C8.17773 16.4162 8.38372 16.2645 8.65086 16.1587C8.918 16.0531 9.24076 16 9.61926 16H10.7046C10.7046 15.7552 10.6683 15.5522 10.596 15.3908C10.5235 15.2295 10.4165 15.1071 10.2746 15.0236C10.1326 14.9401 9.95321 14.8984 9.73615 14.8984C9.48562 14.8984 9.2714 14.9582 9.09334 15.0778C8.91517 15.1975 8.80381 15.3797 8.75939 15.6245H7.92462C7.95796 15.3241 8.05948 15.0682 8.22929 14.8566C8.39897 14.6452 8.61751 14.4838 8.88465 14.3725C9.15179 14.2613 9.43554 14.2057 9.73615 14.2057C10.1313 14.2057 10.4624 14.2753 10.7295 14.4143C10.9967 14.5533 11.1984 14.7496 11.3348 15.0027C11.4712 15.2559 11.5393 15.5576 11.5393 15.9082V18.5124H10.8131L10.7463 17.8029C10.6887 17.9171 10.6172 18.0237 10.5334 18.1202C10.4465 18.2208 10.3452 18.308 10.2328 18.3789C10.1187 18.4513 9.98927 18.5081 9.84468 18.5499C9.69986 18.5917 9.53583 18.6125 9.35212 18.6125ZM14.5196 14.3058V15.0069H13.5012V18.5124H12.6662V15.0069H12.0484V14.3058H12.6662V13.7383C12.6662 13.4489 12.7163 13.2123 12.8165 13.0287C12.9169 12.845 13.0613 12.7115 13.2507 12.628C13.4397 12.5446 13.6681 12.5029 13.9352 12.5029H14.4278V13.2122H14.0605C13.8655 13.2122 13.7236 13.2528 13.6347 13.3333C13.5456 13.4141 13.5012 13.5519 13.5012 13.7464V14.3058H14.5196ZM16.5734 17.9365C16.7515 17.9365 16.9128 17.9004 17.0576 17.828C17.2019 17.7562 17.3286 17.6536 17.4291 17.5276C17.5317 17.4 17.6122 17.2561 17.6671 17.1019C17.7224 16.9462 17.7532 16.7819 17.7589 16.6095V16.5927H16.7654C16.5205 16.5927 16.3242 16.6206 16.1768 16.6763C16.0292 16.7319 15.9221 16.8112 15.8554 16.9141C15.7887 17.017 15.7552 17.1353 15.7552 17.2688C15.7552 17.4024 15.7872 17.5192 15.8512 17.6194C15.9152 17.7195 16.0098 17.7975 16.1351 17.853C16.2604 17.9087 16.4064 17.9365 16.5734 17.9365ZM16.4147 18.6125C16.0696 18.6125 15.7831 18.5541 15.5549 18.4373C15.3267 18.3205 15.157 18.1632 15.0455 17.9657C14.9343 17.7682 14.8788 17.5526 14.8788 17.3189C14.8788 17.0463 14.951 16.8112 15.0957 16.6136C15.2404 16.4162 15.4464 16.2645 15.7134 16.1587C15.9807 16.0531 16.3034 16 16.6818 16H17.7671C17.7671 15.7552 17.7309 15.5522 17.6587 15.3908C17.5861 15.2295 17.479 15.1071 17.3373 15.0236C17.1953 14.9401 17.0159 14.8984 16.7988 14.8984C16.5483 14.8984 16.3341 14.9582 16.156 15.0778C15.9778 15.1975 15.8665 15.3797 15.8221 15.6245H14.9873C15.0205 15.3241 15.1222 15.0682 15.292 14.8566C15.4616 14.6452 15.6802 14.4838 15.9473 14.3725C16.2143 14.2613 16.4982 14.2057 16.7988 14.2057C17.1938 14.2057 17.5251 14.2753 17.7922 14.4143C18.0592 14.5533 18.261 14.7496 18.3975 15.0027C18.5338 15.2559 18.602 15.5576 18.602 15.9082V18.5124H17.8758L17.8089 17.8029C17.7514 17.9171 17.6799 18.0237 17.5961 18.1202C17.5092 18.2208 17.4079 18.308 17.2955 18.3789C17.1814 18.4513 17.0518 18.5081 16.9074 18.5499C16.7625 18.5917 16.5985 18.6125 16.4148 18.6125M19.5035 18.5124V14.3057H20.2548L20.3216 15.0987C20.4219 14.9095 20.5456 14.7496 20.6932 14.6188C20.8405 14.488 21.0187 14.3865 21.2274 14.3141C21.4362 14.2418 21.6684 14.2055 21.9246 14.2055V15.082H21.6241C21.4513 15.082 21.2871 15.1041 21.1314 15.1488C20.9755 15.1933 20.8392 15.2655 20.7223 15.3658C20.6055 15.466 20.5122 15.6008 20.4427 15.7705C20.3729 15.9403 20.3384 16.156 20.3384 16.4174V18.5124H19.5035ZM24.2954 18.6125C23.8946 18.6125 23.5399 18.5208 23.231 18.3371C22.9221 18.1534 22.68 17.8976 22.5046 17.5692C22.3294 17.2409 22.2417 16.857 22.2417 16.4174C22.2417 15.978 22.3266 15.5925 22.4964 15.2613C22.6662 14.9304 22.9081 14.6717 23.2226 14.4852C23.537 14.2988 23.9001 14.2055 24.3121 14.2055C24.7238 14.2055 25.0772 14.2973 25.3723 14.481C25.6673 14.6646 25.894 14.9067 26.0528 15.2071C26.2113 15.5077 26.2906 15.8415 26.2906 16.2088V16.3923C26.2906 16.4591 26.285 16.5287 26.2739 16.601H22.8511V16.0167H25.4641C25.4475 15.6718 25.3306 15.3991 25.1135 15.1988C24.8965 14.9984 24.6264 14.8983 24.3039 14.8983C24.0755 14.8983 23.8668 14.9498 23.6777 15.0527C23.4883 15.1558 23.3381 15.306 23.2268 15.5035C23.1153 15.701 23.0598 15.95 23.0598 16.2505V16.4842C23.0598 16.7958 23.1153 17.0574 23.2268 17.2688C23.3381 17.4802 23.4869 17.6416 23.6735 17.7528C23.8598 17.8642 24.0672 17.9198 24.2954 17.9198C24.5625 17.9198 24.7839 17.8614 24.9591 17.7445C25.1343 17.6276 25.2609 17.469 25.339 17.2688H26.1737C26.1027 17.5222 25.9774 17.7571 25.8064 17.9573C25.6338 18.1606 25.4225 18.3203 25.172 18.4372C24.9215 18.5541 24.6293 18.6125 24.2954 18.6125Z" fill="black"/>
</g>
</g>
<defs>
<clipPath id="clip0_110_658">
<rect width="20.1667" height="11" fill="white"/>
</clipPath>
</defs>
</svg>
