<svg width="42" height="48" viewBox="0 0 42 48" fill="none" xmlns="http://www.w3.org/2000/svg">
<path fill-rule="evenodd" clip-rule="evenodd" d="M9.90504 0.666992H32.095C34.799 0.666992 36.151 0.666992 37.2414 1.04641C39.3092 1.76589 40.9325 3.4371 41.6314 5.56574C42 6.68827 42 8.08011 42 10.8638V43.5401C42 45.5427 39.7017 46.6052 38.2478 45.2747C37.3936 44.4931 36.1064 44.4931 35.2522 45.2747L34.125 46.3062C32.628 47.6761 30.372 47.6761 28.875 46.3062C27.378 44.9363 25.122 44.9363 23.625 46.3062C22.128 47.6761 19.872 47.6761 18.375 46.3062C16.878 44.9363 14.622 44.9363 13.125 46.3062C11.628 47.6761 9.37203 47.6761 7.875 46.3062L6.74778 45.2747C5.8936 44.4931 4.6064 44.4931 3.75222 45.2747C2.29833 46.6052 0 45.5427 0 43.5401V10.8638C0 8.08011 0 6.68827 0.368559 5.56574C1.06745 3.4371 2.69084 1.76589 4.75857 1.04641C5.84898 0.666992 7.201 0.666992 9.90504 0.666992ZM28.1387 15.8325C28.7824 15.1116 28.7198 14.0053 27.9989 13.3616C27.2779 12.7179 26.1716 12.7805 25.5279 13.5015L18.5 21.3728L16.4721 19.1015C15.8284 18.3805 14.7221 18.3179 14.0011 18.9616C13.2802 19.6053 13.2176 20.7116 13.8613 21.4325L17.1946 25.1659C17.5266 25.5377 18.0015 25.7503 18.5 25.7503C18.9985 25.7503 19.4734 25.5377 19.8054 25.1659L28.1387 15.8325ZM10.5 30.417C9.5335 30.417 8.75 31.2005 8.75 32.167C8.75 33.1335 9.5335 33.917 10.5 33.917H31.5C32.4665 33.917 33.25 33.1335 33.25 32.167C33.25 31.2005 32.4665 30.417 31.5 30.417H10.5Z" fill="#1D2739"/>
</svg>
