<svg width="48" height="38" viewBox="0 0 48 38" fill="none" xmlns="http://www.w3.org/2000/svg">
<path fill-rule="evenodd" clip-rule="evenodd" d="M28.6854 35.3398L28.6989 30.6663C28.6989 29.3777 29.7462 28.333 31.0381 28.333C32.33 28.333 33.3772 29.3777 33.3772 30.6663V35.2781C33.3772 36.4017 33.3772 36.9635 33.7375 37.308C34.0978 37.6525 34.649 37.6291 35.7514 37.5824C40.0983 37.3984 42.7688 36.8105 44.6513 34.9327C46.5382 33.0505 47.1259 30.3784 47.309 26.0242C47.3453 25.1607 47.3634 24.729 47.2022 24.441C47.0409 24.1529 46.3972 23.7934 45.1098 23.0745C43.68 22.276 42.7135 20.7504 42.7135 18.9997C42.7135 17.2489 43.68 15.7233 45.1098 14.9249C46.3972 14.2059 47.0409 13.8464 47.2022 13.5584C47.3634 13.2703 47.3453 12.8386 47.309 11.9751C47.1259 7.62092 46.5382 4.94888 44.6513 3.06668C42.6033 1.02377 39.6225 0.507553 34.5651 0.377113C33.9127 0.360286 33.3772 0.886427 33.3772 1.53743V7.33301C33.3772 8.62167 32.33 9.66634 31.0381 9.66634C29.7462 9.66634 28.6989 8.62167 28.6989 7.33301L28.682 1.49629C28.6801 0.853283 28.157 0.333008 27.5124 0.333008H19.322C10.5006 0.333008 6.08982 0.333008 3.34934 3.06668C1.46245 4.94888 0.874732 7.62092 0.691673 11.9751C0.655369 12.8386 0.637218 13.2703 0.798462 13.5584C0.959706 13.8464 1.60342 14.2059 2.89085 14.9249C4.32065 15.7233 5.28715 17.2489 5.28715 18.9997C5.28715 20.7504 4.32065 22.276 2.89085 23.0745C1.60344 23.7934 0.959705 24.1529 0.798462 24.441C0.637218 24.729 0.655369 25.1607 0.691673 26.0242C0.874732 30.3784 1.46245 33.0505 3.34934 34.9327C6.08982 37.6663 10.5006 37.6663 19.322 37.6663H26.3462C27.446 37.6663 27.9959 37.6663 28.3382 37.3258C28.6806 36.9853 28.6822 36.4368 28.6854 35.3398ZM33.3772 21.333V16.6663C33.3772 15.3777 32.33 14.333 31.0381 14.333C29.7462 14.333 28.6989 15.3777 28.6989 16.6663V21.333C28.6989 22.6217 29.7462 23.6663 31.0381 23.6663C32.33 23.6663 33.3772 22.6217 33.3772 21.333Z" fill="#1D2739"/>
</svg>
