<svg width="80" height="80" viewBox="0 0 80 80" fill="none" xmlns="http://www.w3.org/2000/svg">
<circle cx="40" cy="40" r="40" fill="#FEF6E7"/>
<path d="M23.3335 38.333C23.3335 33.619 23.3335 31.2619 24.798 29.7975C26.2624 28.333 28.6195 28.333 33.3335 28.333H41.6668C46.3809 28.333 48.7379 28.333 50.2024 29.7975C51.6668 31.2619 51.6668 33.619 51.6668 38.333C51.6668 43.0471 51.6668 45.4041 50.2024 46.8685C48.7379 48.333 46.3809 48.333 41.6668 48.333H33.3335C28.6195 48.333 26.2624 48.333 24.798 46.8685C23.3335 45.4041 23.3335 43.0471 23.3335 38.333Z" stroke="#1C274C" stroke-width="2"/>
<path d="M51.6669 33.46C53.2921 33.6198 54.386 33.9811 55.2025 34.7976C56.6669 36.262 56.6669 38.6191 56.6669 43.3331C56.6669 48.0471 56.6669 50.4042 55.2025 51.8686C53.738 53.3331 51.381 53.3331 46.6669 53.3331H38.3336C33.6195 53.3331 31.2625 53.3331 29.7981 51.8686C28.9816 51.0521 28.6203 49.9582 28.4604 48.333" stroke="#1C274C" stroke-width="2"/>
<path d="M41.6668 38.3337C41.6668 40.6348 39.8013 42.5003 37.5002 42.5003C35.199 42.5003 33.3335 40.6348 33.3335 38.3337C33.3335 36.0325 35.199 34.167 37.5002 34.167C39.8013 34.167 41.6668 36.0325 41.6668 38.3337Z" stroke="#1C274C" stroke-width="2"/>
<path d="M46.6665 41.667L46.6665 35.0003" stroke="#1C274C" stroke-width="2" stroke-linecap="round"/>
<path d="M28.3335 41.667L28.3335 35.0003" stroke="#1C274C" stroke-width="2" stroke-linecap="round"/>
</svg>
