<svg width="74" height="51" viewBox="0 0 74 51" fill="none" xmlns="http://www.w3.org/2000/svg">
<g clip-path="url(#clip0_119_95)">
<mask id="mask0_119_95" style="mask-type:luminance" maskUnits="userSpaceOnUse" x="-28" y="-10" width="130" height="73">
<path d="M-27.3887 62.2612H101.056V-9.44454H-27.3887V62.2612Z" fill="white"/>
</mask>
<g mask="url(#mask0_119_95)">
<path d="M57.2122 23.3391V28.3218H46.8222L40.5102 21.3256L39.2842 22.0349L35.6748 17.9782L26.3937 28.3218H16.0562V23.3391H27.3336L17.5671 17.7017L20.0588 13.3855L29.8253 19.023L24.1867 9.25843L28.5038 6.76521L34.1423 16.5318V5.25659H39.126V16.5318L44.7646 6.76521L49.0817 9.25843L43.4431 19.023L53.2096 13.3855L55.7013 17.7017L45.9348 23.3391H57.2122Z" fill="#FEC601"/>
<path d="M38.8821 26.1584L35.7621 19.7908L39.0393 23.6289L40.1162 22.9095L44.561 27.7071L40.1613 24.8911L38.8821 26.1584ZM40.1613 21.9684L39.0393 22.6136L35.7395 18.9233L27.255 28.3345H45.93L40.1613 21.9684ZM7.4416 44.0194C6.56988 44.0194 5.80135 43.8617 5.13677 43.5463C4.47119 43.2312 3.9552 42.7871 3.5883 42.2134C3.22115 41.6402 3.03809 40.9694 3.03809 40.201H4.84417C4.84417 40.6371 4.94737 41.0354 5.15376 41.3966C5.36016 41.7578 5.6553 42.0446 6.03969 42.2565C6.42383 42.4687 6.89113 42.5746 7.44186 42.5746C7.92362 42.5746 8.33869 42.4945 8.68885 42.3338C9.03876 42.1733 9.30524 41.9528 9.48857 41.6716C9.67214 41.391 9.76393 41.067 9.76393 40.7C9.76393 40.2758 9.66935 39.929 9.4802 39.6593C9.29079 39.3901 9.03546 39.1665 8.71446 38.9885C8.39346 38.8111 8.0149 38.6506 7.57928 38.5072C7.12702 38.3586 6.67399 38.2125 6.22022 38.0686C5.26812 37.7477 4.56019 37.3405 4.09567 36.8474C3.63115 36.3546 3.39915 35.7123 3.39915 34.9211C3.39915 34.2447 3.55661 33.6571 3.87203 33.1582C4.18746 32.6595 4.63777 32.2696 5.22248 31.9887C5.80743 31.7079 6.4895 31.5674 7.26969 31.5674C8.06079 31.5674 8.7459 31.7109 9.32528 31.9974C9.90415 32.2841 10.36 32.6796 10.693 33.184C11.0254 33.6888 11.1975 34.2792 11.2089 34.9555H9.38537C9.38537 34.646 9.30525 34.3423 9.14475 34.0439C8.98399 33.7461 8.74311 33.5022 8.42211 33.3131C8.10085 33.1239 7.7053 33.0291 7.23546 33.0291C6.84524 33.018 6.49558 33.0809 6.18574 33.2185C5.8764 33.3559 5.63248 33.5567 5.45473 33.8203C5.27674 34.0842 5.18799 34.3996 5.18799 34.7664C5.18799 35.1335 5.26812 35.4286 5.42887 35.6522C5.58937 35.8758 5.81605 36.0679 6.1084 36.2281C6.40075 36.3889 6.74762 36.5351 7.14925 36.6667C7.55038 36.7988 7.99207 36.945 8.47383 37.1055C9.05853 37.3005 9.58593 37.5382 10.0563 37.8191C10.5264 38.1003 10.8963 38.4615 11.1658 38.9026C11.4354 39.3442 11.5703 39.9088 11.5703 40.5968C11.5703 41.193 11.4156 41.749 11.1058 42.2651C10.7964 42.781 10.3375 43.2023 9.72945 43.5291C9.12167 43.8561 8.35897 44.0194 7.4416 44.0194ZM14.2022 47.5968L16.3181 42.8499H15.8191L12.3958 35.1449H14.2709L16.9718 41.4394L19.7069 35.1449H21.5132L16.0085 47.5968H14.2022ZM22.6829 43.813V35.1446H24.2311L24.3343 36.6239C24.6097 36.0966 24.9966 35.6839 25.4956 35.3855C25.9943 35.0876 26.5763 34.9383 27.2416 34.9383C27.9409 34.9383 28.5373 35.0759 29.0307 35.351C29.5236 35.6263 29.905 36.0421 30.1745 36.598C30.444 37.1544 30.5789 37.8508 30.5789 38.6876V43.813H28.8585V38.8595C28.8585 38.0572 28.681 37.4468 28.3253 37.028C27.9698 36.6097 27.4536 36.4003 26.7771 36.4003C26.3298 36.4003 25.9282 36.5093 25.5729 36.727C25.2172 36.9451 24.9335 37.2602 24.7215 37.6731C24.509 38.0858 24.4033 38.5905 24.4033 39.1865V43.813H22.6829ZM35.6536 42.6264C36.0205 42.6264 36.3529 42.5518 36.6513 42.4028C36.9486 42.2547 37.2099 42.0433 37.4168 41.7837C37.6283 41.5209 37.7941 41.2243 37.9072 40.9065C38.0215 40.5856 38.0847 40.2472 38.0964 39.8918V39.8573H36.0491C35.5446 39.8573 35.1401 39.9148 34.8364 40.0294C34.5324 40.144 34.3118 40.3075 34.1741 40.5195C34.0367 40.7317 33.9677 40.9753 33.9677 41.2503C33.9677 41.5257 34.0336 41.7664 34.1655 41.9728C34.2973 42.1792 34.4923 42.3399 34.7504 42.4542C35.0085 42.569 35.3095 42.6264 35.6536 42.6264ZM35.3268 44.0194C34.6155 44.0194 34.025 43.8989 33.5549 43.6583C33.0846 43.4175 32.7349 43.0935 32.5054 42.6864C32.276 42.2795 32.1616 41.8352 32.1616 41.3538C32.1616 40.792 32.3104 40.3075 32.6086 39.9004C32.9068 39.4935 33.3313 39.1809 33.8817 38.9629C34.4322 38.7454 35.0973 38.6359 35.8772 38.6359H38.1136C38.1136 38.1314 38.0388 37.7132 37.89 37.3806C37.7406 37.0482 37.52 36.796 37.2277 36.6239C36.9351 36.452 36.5654 36.366 36.1181 36.366C35.6019 36.366 35.1604 36.4892 34.7935 36.7357C34.4264 36.9823 34.1969 37.3577 34.1054 37.8622H32.3852C32.454 37.2431 32.6631 36.7159 33.013 36.2798C33.3627 35.8443 33.813 35.5117 34.3635 35.2823C34.914 35.0531 35.4987 34.9385 36.1181 34.9385C36.9323 34.9385 37.6146 35.082 38.1651 35.3685C38.7155 35.6549 39.1311 36.0593 39.4123 36.581C39.6932 37.1027 39.8337 37.7243 39.8337 38.4468V43.813H38.3372L38.1996 42.351C38.081 42.5863 37.9336 42.8059 37.7609 43.0048C37.5819 43.2121 37.3731 43.3918 37.1415 43.538C36.9064 43.687 36.6397 43.8041 36.3417 43.8903C36.0433 43.9765 35.7053 44.0194 35.3268 44.0194ZM45.9749 35.1449V36.5897H43.8764V43.813H42.1558V36.5897H40.8827V35.1449H42.1558V33.9755C42.1558 33.3792 42.259 32.8915 42.4654 32.5133C42.6723 32.1348 42.97 31.8597 43.3602 31.6876C43.7497 31.5157 44.2202 31.4298 44.7707 31.4298H45.7857V32.8915H45.0288C44.627 32.8915 44.3346 32.9751 44.1515 33.1409C43.968 33.3075 43.8764 33.5914 43.8764 33.9922V35.1449H45.9749ZM50.207 42.6264C50.5739 42.6264 50.9063 42.5518 51.2047 42.4028C51.502 42.2547 51.7632 42.0433 51.9702 41.7837C52.1817 41.5209 52.3475 41.2243 52.4606 40.9065C52.5747 40.5856 52.6381 40.2472 52.6497 39.8918V39.8573H50.6025C50.0979 39.8573 49.6935 39.9148 49.3898 40.0294C49.0855 40.144 48.8649 40.3075 48.7275 40.5195C48.59 40.7317 48.5211 40.9753 48.5211 41.2503C48.5211 41.5257 48.587 41.7664 48.7189 41.9728C48.8507 42.1792 49.0457 42.3399 49.3038 42.4542C49.5619 42.569 49.8629 42.6264 50.207 42.6264ZM49.8799 44.0194C49.1689 44.0194 48.5784 43.8989 48.1083 43.6583C47.6379 43.4175 47.2883 43.0935 47.0586 42.6864C46.8293 42.2795 46.715 41.8352 46.715 41.3538C46.715 40.792 46.8638 40.3075 47.162 39.9004C47.4602 39.4935 47.8846 39.1809 48.4349 38.9629C48.9856 38.7454 49.6507 38.6359 50.4304 38.6359H52.6667C52.6667 38.1314 52.5922 37.7132 52.4433 37.3806C52.2938 37.0482 52.0732 36.796 51.7811 36.6239C51.4885 36.452 51.1188 36.366 50.6715 36.366C50.1553 36.366 49.7138 36.4892 49.3469 36.7357C48.9798 36.9823 48.7503 37.3577 48.6588 37.8622H46.9386C47.0071 37.2431 47.2165 36.7159 47.5664 36.2798C47.9161 35.8443 48.3664 35.5117 48.9169 35.2823C49.4671 35.0531 50.0521 34.9385 50.6715 34.9385C51.4854 34.9385 52.168 35.082 52.7185 35.3685C53.2687 35.6549 53.6845 36.0593 53.9657 36.581C54.2466 37.1027 54.3871 37.7243 54.3871 38.4468V43.813H52.8906L52.7529 42.351C52.6344 42.5863 52.487 42.8059 52.3143 43.0048C52.1352 43.2121 51.9265 43.3918 51.6949 43.538C51.4598 43.687 51.1928 43.8041 50.8951 43.8903C50.5967 43.9765 50.2587 44.0194 49.8801 44.0194M56.2447 43.813V35.1446H57.7929L57.9306 36.7787C58.1372 36.3888 58.392 36.0593 58.6963 35.7898C58.9998 35.5204 59.367 35.3112 59.797 35.1619C60.2273 35.0131 60.7057 34.9383 61.2337 34.9383V36.7443H60.6145C60.2585 36.7443 59.92 36.7899 59.5992 36.8819C59.278 36.9737 58.997 37.1225 58.7561 37.3291C58.5155 37.5355 58.3233 37.8133 58.1801 38.1631C58.0363 38.5129 57.9651 38.9574 57.9651 39.496V43.813H56.2447ZM66.1189 44.0194C65.2931 44.0194 64.5621 43.8302 63.9257 43.4517C63.2892 43.0733 62.7902 42.5462 62.4289 41.8694C62.0679 41.193 61.8871 40.4018 61.8871 39.496C61.8871 38.5905 62.062 37.7963 62.4119 37.1139C62.7618 36.4319 63.2603 35.8988 63.9084 35.5145C64.5563 35.1304 65.3045 34.9383 66.1534 34.9383C67.0018 34.9383 67.73 35.1274 68.3381 35.5059C68.9458 35.8841 69.4131 36.383 69.7402 37.0021C70.0668 37.6214 70.2303 38.3094 70.2303 39.0661V39.4444C70.2303 39.582 70.2187 39.7255 70.1959 39.8743H63.1429V38.6704H68.5272C68.493 37.9596 68.2521 37.3978 67.8048 36.9851C67.3576 36.5721 66.801 36.3658 66.1364 36.3658C65.6658 36.3658 65.2358 36.472 64.8461 36.6839C64.4559 36.8963 64.1463 37.2059 63.917 37.6128C63.6873 38.0199 63.573 38.533 63.573 39.1521V39.6337C63.573 40.2758 63.6873 40.8148 63.917 41.2503C64.1463 41.6861 64.4531 42.0187 64.8374 42.2478C65.2213 42.4773 65.6488 42.5919 66.1189 42.5919C66.6694 42.5919 67.1255 42.4715 67.4866 42.2306C67.8477 41.9898 68.1086 41.6631 68.2693 41.2503H69.9895C69.8431 41.7726 69.5848 42.2567 69.2326 42.6692C68.8769 43.088 68.4415 43.4173 67.9253 43.6581C67.409 43.8989 66.8071 44.0194 66.1189 44.0194Z" fill="#FEC601"/>
</g>
</g>
<defs>
<clipPath id="clip0_119_95">
<rect width="73.6667" height="51" fill="white"/>
</clipPath>
</defs>
</svg>
