<svg width="48" height="48" viewBox="0 0 48 48" fill="none" xmlns="http://www.w3.org/2000/svg">
<rect width="48" height="48" rx="24" fill="#F3EDFF"/>
<path d="M20.9999 23.9999L22.9999 25.9999L26.9999 21.9999M19.8349 16.6969C20.5522 16.6396 21.2331 16.3576 21.7809 15.8909C22.3998 15.3631 23.1865 15.0732 23.9999 15.0732C24.8132 15.0732 25.5999 15.3631 26.2189 15.8909C26.7666 16.3576 27.4475 16.6396 28.1649 16.6969C28.9756 16.7614 29.7368 17.1127 30.3119 17.6878C30.887 18.2629 31.2383 19.0241 31.3029 19.8349C31.3601 20.5522 31.6421 21.2331 32.1089 21.7809C32.6366 22.3998 32.9265 23.1865 32.9265 23.9999C32.9265 24.8132 32.6366 25.5999 32.1089 26.2189C31.6421 26.7666 31.3601 27.4475 31.3029 28.1649C31.2383 28.9756 30.887 29.7368 30.3119 30.3119C29.7368 30.887 28.9756 31.2383 28.1649 31.3029C27.4475 31.3601 26.7666 31.6421 26.2189 32.1089C25.5999 32.6366 24.8132 32.9265 23.9999 32.9265C23.1865 32.9265 22.3998 32.6366 21.7809 32.1089C21.2331 31.6421 20.5522 31.3601 19.8349 31.3029C19.0241 31.2383 18.2629 30.887 17.6878 30.3119C17.1127 29.7368 16.7614 28.9756 16.6969 28.1649C16.6396 27.4475 16.3576 26.7666 15.8909 26.2189C15.3631 25.5999 15.0732 24.8132 15.0732 23.9999C15.0732 23.1865 15.3631 22.3998 15.8909 21.7809C16.3576 21.2331 16.6396 20.5522 16.6969 19.8349C16.7614 19.0241 17.1127 18.2629 17.6878 17.6878C18.2629 17.1127 19.0241 16.7614 19.8349 16.6969Z" stroke="#7F56D9" stroke-width="2" stroke-linecap="round" stroke-linejoin="round"/>
</svg>
