<svg width="80" height="80" viewBox="0 0 80 80" fill="none" xmlns="http://www.w3.org/2000/svg">
<circle cx="40" cy="40" r="40" fill="#EBECFF"/>
<path fill-rule="evenodd" clip-rule="evenodd" d="M46.0578 23.5405C46.603 22.1532 48.5629 22.1531 49.108 23.5405L49.8213 25.3559L51.6291 26.0715C53.0114 26.6187 53.0114 28.5786 51.6291 29.1257L49.8213 29.8413L49.108 31.6567C48.5629 33.0441 46.603 33.0441 46.0578 31.6567L45.3445 29.8413L43.5367 29.1257C42.1544 28.5786 42.1544 26.6187 43.5367 26.0715L45.3445 25.3559L46.0578 23.5405ZM47.5829 24.2165L48.2741 25.9756C48.4402 26.3982 48.7739 26.7338 49.1969 26.9012L50.9587 27.5986L49.1969 28.296C48.7739 28.4635 48.4402 28.7991 48.2741 29.2217L47.5829 30.9808L46.8917 29.2217C46.7256 28.7991 46.3919 28.4635 45.9689 28.296L44.2071 27.5986L45.9689 26.9012C46.3919 26.7338 46.7256 26.3982 46.8917 25.9756L47.5829 24.2165Z" fill="#1C274C"/>
<path fill-rule="evenodd" clip-rule="evenodd" d="M25.5237 25.5237C27.8885 23.1588 31.7228 23.1588 34.0877 25.5237L54.4763 45.9123C56.8412 48.2772 56.8412 52.1115 54.4763 54.4763C52.1115 56.8412 48.2772 56.8412 45.9123 54.4763L25.5237 34.0877C23.1588 31.7228 23.1588 27.8885 25.5237 25.5237ZM32.3199 27.2914C30.9313 25.9029 28.68 25.9029 27.2914 27.2914C25.9029 28.68 25.9029 30.9313 27.2914 32.3199L29.9352 34.9637L34.9637 29.9352L32.3199 27.2914ZM47.6801 52.7086L31.703 36.7315L36.7315 31.703L52.7086 47.6801C54.0971 49.0687 54.0971 51.32 52.7086 52.7086C51.32 54.0971 49.0687 54.0971 47.6801 52.7086Z" fill="#1C274C"/>
<path fill-rule="evenodd" clip-rule="evenodd" d="M55.5533 34.911C55.0081 33.5236 53.0482 33.5236 52.503 34.911L52.2455 35.5664L51.5933 35.8246C50.2111 36.3718 50.2111 38.3316 51.5933 38.8788L52.2455 39.137L52.503 39.7924C53.0482 41.1798 55.0081 41.1798 55.5533 39.7924L55.8108 39.137L56.4629 38.8788C57.8452 38.3316 57.8452 36.3718 56.4629 35.8246L55.8108 35.5664L55.5533 34.911ZM54.0281 35.5869L53.7927 36.1861C53.6266 36.6087 53.2929 36.9443 52.8699 37.1118L52.2638 37.3517L52.8699 37.5917C53.2929 37.7591 53.6266 38.0947 53.7927 38.5173L54.0281 39.1165L54.2636 38.5173C54.4297 38.0947 54.7634 37.7591 55.1864 37.5917L55.7925 37.3517L55.1864 37.1118C54.7634 36.9443 54.4297 36.6087 54.2636 36.1861L54.0281 35.5869Z" fill="#1C274C"/>
<path fill-rule="evenodd" clip-rule="evenodd" d="M27.7797 45.2072C28.3249 43.8198 30.2848 43.8198 30.83 45.2072L31.0875 45.8627L31.7396 46.1208C33.1219 46.668 33.1219 48.6279 31.7396 49.175L31.0875 49.4332L30.83 50.0886C30.2848 51.476 28.3249 51.476 27.7797 50.0886L27.5222 49.4332L26.87 49.175C25.4878 48.6279 25.4878 46.668 26.87 46.1208L27.5222 45.8627L27.7797 45.2072ZM29.0694 46.4823L29.3048 45.8832L29.5403 46.4823C29.7064 46.905 30.0401 47.2405 30.4631 47.408L31.0692 47.6479L30.4631 47.8879C30.0401 48.0553 29.7064 48.3909 29.5403 48.8135L29.3048 49.4127L29.0694 48.8135C28.9033 48.3909 28.5696 48.0553 28.1466 47.8879L27.5404 47.6479L28.1466 47.408C28.5696 47.2405 28.9033 46.905 29.0694 46.4823Z" fill="#1C274C"/>
</svg>
