<svg width="48" height="48" viewBox="0 0 48 48" fill="none" xmlns="http://www.w3.org/2000/svg">
<path fill-rule="evenodd" clip-rule="evenodd" d="M18.3826 3.46763C17.8144 3.95187 17.5302 4.194 17.2268 4.39738C16.5312 4.86359 15.7501 5.18716 14.9286 5.34935C14.5702 5.4201 14.1981 5.44979 13.4538 5.50918C11.5839 5.6584 10.649 5.73301 9.86897 6.00852C8.06485 6.64576 6.64576 8.06485 6.00852 9.86897C5.73301 10.649 5.6584 11.5839 5.50918 13.4538C5.44979 14.1981 5.4201 14.5702 5.34935 14.9286C5.18716 15.7501 4.86359 16.5312 4.39738 17.2268C4.194 17.5302 3.95188 17.8144 3.46763 18.3826C2.25094 19.8103 1.64257 20.5242 1.28583 21.2706C0.460713 22.9969 0.460713 25.0038 1.28583 26.7301C1.64257 27.4765 2.25092 28.1903 3.46763 29.618C3.95182 30.1862 4.19401 30.4704 4.39738 30.7738C4.86359 31.4694 5.18716 32.2506 5.34935 33.0721C5.4201 33.4305 5.44979 33.8026 5.50918 34.5468C5.6584 36.4167 5.73301 37.3517 6.00852 38.1317C6.64576 39.9358 8.06485 41.3549 9.86897 41.9921C10.649 42.2676 11.5839 42.3422 13.4538 42.4915C14.1981 42.5509 14.5702 42.5806 14.9286 42.6513C15.7501 42.8135 16.5312 43.1371 17.2268 43.6033C17.5302 43.8066 17.8144 44.0488 18.3826 44.533C19.8103 45.7497 20.5242 46.3581 21.2706 46.7148C22.9969 47.5399 25.0038 47.5399 26.7301 46.7148C27.4765 46.3581 28.1903 45.7497 29.618 44.533C30.1863 44.0488 30.4704 43.8066 30.7739 43.6033C31.4694 43.1371 32.2506 42.8135 33.0721 42.6513C33.4305 42.5806 33.8026 42.5509 34.5468 42.4915C36.4167 42.3422 37.3517 42.2676 38.1317 41.9921C39.9358 41.3549 41.3549 39.9358 41.9921 38.1317C42.2676 37.3517 42.3422 36.4167 42.4915 34.5468C42.5509 33.8026 42.5806 33.4305 42.6513 33.0721C42.8135 32.2506 43.1371 31.4694 43.6033 30.7739C43.8066 30.4704 44.0488 30.1863 44.533 29.618C45.7497 28.1903 46.3581 27.4765 46.7148 26.7301C47.5399 25.0038 47.5399 22.9969 46.7148 21.2706C46.3581 20.5242 45.7497 19.8103 44.533 18.3826C44.0488 17.8144 43.8066 17.5302 43.6033 17.2268C43.1371 16.5312 42.8135 15.7501 42.6513 14.9286C42.5806 14.5702 42.5509 14.1981 42.4915 13.4538C42.3422 11.5839 42.2676 10.649 41.9921 9.86897C41.3549 8.06485 39.9358 6.64576 38.1317 6.00852C37.3517 5.73301 36.4167 5.6584 34.5468 5.50918C33.8026 5.44979 33.4305 5.4201 33.0721 5.34935C32.2506 5.18716 31.4694 4.86359 30.7738 4.39738C30.4704 4.194 30.1863 3.95188 29.618 3.46763C28.1903 2.25092 27.4765 1.64257 26.7301 1.28583C25.0038 0.460713 22.9969 0.460713 21.2706 1.28583C20.5242 1.64257 19.8103 2.25094 18.3826 3.46763ZM34.2051 19.0143C34.9467 18.2727 34.9467 17.0703 34.2051 16.3287C33.4635 15.5871 32.2611 15.5871 31.5195 16.3287L20.2023 27.646L16.4811 23.9247C15.7395 23.1831 14.5371 23.1831 13.7955 23.9247C13.0539 24.6663 13.0539 25.8687 13.7955 26.6103L18.8595 31.6744C19.6011 32.416 20.8035 32.416 21.5451 31.6744L34.2051 19.0143Z" fill="#1D2739"/>
</svg>
