<svg width="74" height="57" viewBox="0 0 74 57" fill="none" xmlns="http://www.w3.org/2000/svg">
<mask id="mask0_110_644" style="mask-type:luminance" maskUnits="userSpaceOnUse" x="0" y="0" width="74" height="57">
<path d="M0 0.261719H73.5482V57.0001H0V0.261719Z" fill="white"/>
</mask>
<g mask="url(#mask0_110_644)">
<path fill-rule="evenodd" clip-rule="evenodd" d="M19.0926 36.3174H25.5333C26.093 36.3174 26.5441 36.7695 26.5441 37.3282V55.9893C26.5441 56.548 26.093 57.0001 25.5333 57.0001H19.0926C18.535 57.0001 18.0818 56.548 18.0818 55.9893V37.3282C18.0818 36.7695 18.535 36.3174 19.0926 36.3174ZM38.1672 21.6284C39.5759 21.4802 40.594 23.3566 40.7527 24.8676C40.7778 25.1798 40.8028 25.492 40.8279 25.8042L40.8112 26.3514C40.8665 27.0719 40.7089 28.8554 40.6838 30.1795C40.6598 31.5025 40.477 33.2798 40.6608 34.2927L40.7235 34.6696H50.9557C50.9557 34.6728 50.9557 34.6759 50.9557 34.679L51.0873 34.6696C53.5047 34.6696 55.4667 36.0835 55.4667 37.8273C55.4667 38.9175 54.7003 39.8792 53.5349 40.4462L52.9063 40.6926L53.041 40.7229C54.4382 41.1636 55.4187 42.1932 55.4187 43.394C55.4187 44.5949 54.4382 45.6245 53.041 46.0641L52.6233 46.1601L52.8426 46.2437C53.8785 46.7355 54.5603 47.5667 54.5603 48.5107C54.5603 49.6426 53.5798 50.6137 52.1806 51.0293L51.7044 51.1327L51.8694 51.1954C52.9053 51.6872 53.5861 52.5184 53.5861 53.4623C53.5861 54.9712 51.8433 56.195 49.6922 56.195L49.2422 56.1637C49.2422 56.1742 49.2422 56.1846 49.2422 56.195H32.9775C30.5382 56.195 28.5605 54.2215 28.5605 51.7864V39.0783C28.5605 38.7734 28.5751 38.6543 28.6336 38.3682L28.7463 37.8816L28.8017 37.5809C29.3092 35.3202 30.8118 33.1607 31.6889 31.8189L33.296 28.6268C33.864 27.2567 34.2264 26.3963 34.3329 25.9483C34.3277 25.8951 35.4178 23.5111 35.4105 23.4568C36.0788 22.2957 37.0593 21.7443 38.1672 21.6284ZM7.10499 15.8873L7.13319 15.8905L7.16347 15.8873L7.21464 15.8999L7.36396 15.9166L7.46942 15.9604L7.51224 15.9709L7.54043 15.9907L7.60308 16.0168L7.74405 16.1317L7.7712 16.1515L7.77747 16.1599L7.80566 16.1829C7.86623 16.2486 7.91635 16.3249 7.95707 16.4094L9.42628 19.5672C9.48998 19.7039 9.58709 19.8209 9.70404 19.9097L9.83457 19.9848L9.89305 20.0172C9.96196 20.0454 10.0351 20.0663 10.1092 20.0778L13.4966 20.5779C13.9905 20.651 14.332 21.1095 14.2579 21.6023C14.2297 21.7924 14.143 21.9678 14.0083 22.1035L13.4204 22.7008V22.704L11.4928 24.6587C11.2902 24.8644 11.1994 25.1558 11.2474 25.4409L11.8436 29.0089C11.8614 29.1102 11.8614 29.2126 11.8436 29.3128L11.8332 29.3431L11.8311 29.3671L11.7956 29.4444L11.7413 29.5989L11.7079 29.6376L11.688 29.6825L11.592 29.7723L11.5074 29.8704L11.4667 29.8923L11.4364 29.9205L11.3288 29.9613L11.1994 30.027L11.1451 30.0312L11.1002 30.0479H10.9498L10.8548 30.0563L10.8276 30.0469H10.7973C10.6981 30.0302 10.601 29.9957 10.5112 29.9466L7.57385 28.3093C7.50493 28.2707 7.43392 28.2425 7.35978 28.2237L7.13319 28.1944L6.90868 28.2237C6.83454 28.2425 6.76145 28.2707 6.69462 28.3093L3.7562 29.9466C3.66744 29.9957 3.57033 30.0302 3.47113 30.0469H3.44085L3.41474 30.0563L3.31867 30.0479H3.16622L3.12445 30.0312L3.06911 30.027L2.93962 29.9613L2.83207 29.9205L2.80179 29.8923L2.76002 29.8704L2.67648 29.7723L2.58041 29.6825L2.55953 29.6376L2.52611 29.5989L2.47077 29.4444L2.43736 29.3671L2.43527 29.3431L2.42483 29.3128C2.40707 29.2126 2.40707 29.1102 2.42483 29.0089L3.02107 25.4409C3.06911 25.1558 2.97722 24.8644 2.77568 24.6587L1.25322 23.1164L1.25531 23.1133L0.26017 22.1035C0.125466 21.9678 0.0367081 21.7924 0.0106028 21.6023C-0.0635365 21.1095 0.277922 20.651 0.771835 20.5779L4.15927 20.0778C4.23445 20.0663 4.3065 20.0454 4.37542 20.0172L4.43181 19.9838L4.56338 19.9097C4.68137 19.8209 4.77953 19.7039 4.84323 19.5672L6.31243 16.4094C6.35107 16.3249 6.40224 16.2486 6.4628 16.1829L6.491 16.1599L6.49622 16.1515L6.52441 16.1317L6.66642 16.0168L6.72803 15.9907L6.75518 15.9709L6.79904 15.9604L6.90555 15.9166L7.05383 15.8999L7.10499 15.8873ZM66.384 15.8873L66.4143 15.8905L66.4425 15.8873L66.4936 15.8999L66.643 15.9166L66.7495 15.9604L66.7933 15.9709L66.8194 15.9907L66.8831 16.0168L67.023 16.1317L67.0512 16.1515L67.0575 16.1599L67.0857 16.1829C67.1452 16.2486 67.1964 16.3249 67.2361 16.4094L68.7053 19.5672C68.769 19.7039 68.8661 19.8209 68.9851 19.9097L69.1157 19.9848L69.172 20.0172C69.241 20.0454 69.314 20.0663 69.3882 20.0778L72.7767 20.5779C73.2706 20.651 73.612 21.1095 73.5379 21.6023C73.5107 21.7924 73.422 21.9678 73.2873 22.1035L72.7004 22.7008L72.7015 22.704L70.7728 24.6587C70.5702 24.8644 70.4783 25.1558 70.5264 25.4409L71.1226 29.0089C71.1404 29.1102 71.1404 29.2126 71.1226 29.3128L71.1122 29.3431V29.3671L71.0767 29.4444L71.0224 29.5989L70.9879 29.6376L70.967 29.6825L70.872 29.7723L70.7885 29.8704L70.7457 29.8923L70.7154 29.9205L70.6078 29.9613L70.4783 30.027L70.424 30.0312L70.3812 30.0479H70.2288L70.1338 30.0563L70.1066 30.0469H70.0763C69.9782 30.0302 69.88 29.9957 69.7923 29.9466L66.8539 28.3093C66.786 28.2707 66.714 28.2425 66.6388 28.2237L66.4143 28.1944L66.1877 28.2237C66.1135 28.2425 66.0425 28.2707 65.9736 28.3093L63.0373 29.9466C62.9464 29.9957 62.8493 30.0302 62.7501 30.0469H62.7198L62.6937 30.0563L62.5977 30.0479H62.4473L62.4034 30.0312L62.3481 30.027L62.2197 29.9613L62.1111 29.9205L62.0808 29.8923L62.0401 29.8704L61.9555 29.7723L61.8605 29.6825L61.8406 29.6376L61.8072 29.5989L61.7519 29.4444L61.7164 29.3671L61.7153 29.3431L61.7038 29.3128C61.6861 29.2126 61.6861 29.1102 61.7038 29.0089L62.3011 25.4409C62.3481 25.1558 62.2583 24.8644 62.0547 24.6587L60.5322 23.1164L60.5343 23.1133L59.5392 22.1035C59.4045 21.9678 59.3178 21.7924 59.2896 21.6023C59.2155 21.1095 59.5569 20.651 60.0508 20.5779L63.4393 20.0778C63.5134 20.0663 63.5855 20.0454 63.6544 20.0172L63.7129 19.9838L63.8445 19.9097C63.9614 19.8209 64.0585 19.7039 64.1222 19.5672L65.5914 16.4094C65.6321 16.3249 65.6812 16.2486 65.7418 16.1829L65.77 16.1599L65.7773 16.1515L65.8034 16.1317L65.9454 16.0168L66.007 15.9907L66.0352 15.9709L66.078 15.9604L66.1845 15.9166L66.3328 15.8999L66.384 15.8873ZM53.0107 5.12045L53.041 5.12358L53.0713 5.12045L53.1225 5.13298L53.2718 5.14864L53.3762 5.19354L53.4201 5.20398L53.4483 5.22382L53.5099 5.24993L53.6498 5.36479L53.679 5.38463L53.6843 5.39194L53.7124 5.41596C53.772 5.48175 53.8231 5.55797 53.8628 5.64255L55.332 8.80026C55.3957 8.93705 55.4928 9.054 55.6119 9.14276L55.7424 9.2169L55.7988 9.25031C55.8677 9.27851 55.9408 9.29939 56.017 9.30983L59.4034 9.81106C59.8973 9.88415 60.2388 10.3426 60.1657 10.8354C60.1375 11.0255 60.0487 11.2009 59.9151 11.3367L59.3272 11.9339L59.3282 11.9371L57.4006 13.8918C57.198 14.0976 57.1051 14.3889 57.1531 14.674L57.7515 18.242C57.7671 18.3433 57.7671 18.4457 57.7494 18.5459L57.7389 18.5762V18.6002L57.7034 18.6775L57.6491 18.832L57.6157 18.8707L57.5959 18.9156L57.4998 19.0054L57.4152 19.1035L57.3724 19.1244L57.3421 19.1536L57.2367 19.1944L57.1051 19.2602L57.0518 19.2643L57.008 19.281H56.8555L56.7605 19.2883L56.7334 19.28H56.7041C56.6049 19.2633 56.5089 19.2288 56.4191 19.1797L53.4817 17.5424C53.4128 17.5038 53.3407 17.4756 53.2666 17.4568L53.041 17.4276L52.8144 17.4568C52.7424 17.4756 52.6693 17.5038 52.6004 17.5424L49.664 19.1797C49.5732 19.2288 49.4782 19.2633 49.3769 19.28H49.3487L49.3226 19.2883L49.2244 19.281H49.074L49.0302 19.2643L48.9769 19.2602L48.8464 19.1944L48.7378 19.1536L48.7075 19.1244L48.6679 19.1035L48.5822 19.0054L48.4872 18.9156L48.4674 18.8707L48.4339 18.832L48.3786 18.6775L48.3431 18.6002V18.5762L48.3306 18.5459C48.3149 18.4457 48.3128 18.3433 48.3306 18.242L48.9289 14.674C48.9769 14.3889 48.885 14.0976 48.6814 13.8918L47.161 12.3495V12.3464L46.1659 11.3367C46.0312 11.2009 45.9445 11.0255 45.9163 10.8354C45.8443 10.3426 46.1858 9.88415 46.6797 9.81106L50.0661 9.30983C50.1423 9.29939 50.2143 9.27851 50.2812 9.25031L50.3396 9.2169L50.4712 9.14276C50.5892 9.054 50.6853 8.93705 50.7511 8.80026L52.2203 5.64255C52.2589 5.55797 52.3101 5.48175 52.3685 5.41596L52.3988 5.39194L52.404 5.38463L52.4322 5.36479L52.5722 5.24993L52.6338 5.22382L52.662 5.20398L52.7048 5.19354L52.8113 5.14864L52.9596 5.13298L53.0107 5.12045ZM20.5597 5.12045L20.59 5.12358L20.6182 5.12045L20.6693 5.13298L20.8187 5.14864L20.9241 5.19354L20.9669 5.20398L20.9951 5.22382L21.0567 5.24993L21.1988 5.36479L21.2269 5.38463L21.2322 5.39194L21.2604 5.41596C21.3209 5.48175 21.3721 5.55797 21.4107 5.64255L22.8799 8.80026C22.9436 8.93705 23.0418 9.054 23.1598 9.14276L23.2914 9.2169L23.3477 9.25031C23.4167 9.27851 23.4898 9.29939 23.5639 9.30983L26.9513 9.81106C27.4452 9.88415 27.7867 10.3426 27.7126 10.8354C27.6865 11.0255 27.5977 11.2009 27.463 11.3367L26.8751 11.9339L26.8772 11.9371L24.9475 13.8918C24.7459 14.0976 24.6541 14.3889 24.7021 14.674L25.2983 18.242C25.3161 18.3433 25.3161 18.4457 25.2983 18.5459L25.2879 18.5762L25.2858 18.6002L25.2524 18.6775L25.197 18.832L25.1636 18.8707L25.1427 18.9156L25.0467 19.0054L24.9642 19.1035L24.9214 19.1244L24.8911 19.1536L24.7835 19.1944L24.6541 19.2602L24.5987 19.2643L24.5549 19.281H24.4045L24.3084 19.2883L24.2823 19.28H24.252C24.1528 19.2633 24.0557 19.2288 23.967 19.1797L21.0285 17.5424C20.9617 17.5038 20.8886 17.4756 20.8145 17.4568L20.59 17.4276L20.3634 17.4568C20.2892 17.4756 20.2161 17.5038 20.1493 17.5424L17.213 19.1797C17.1221 19.2288 17.025 19.2633 16.9258 19.28H16.8955L16.8694 19.2883L16.7734 19.281H16.623L16.5791 19.2643L16.5238 19.2602L16.3943 19.1944L16.2868 19.1536L16.2565 19.1244L16.2158 19.1035L16.1312 19.0054L16.0351 18.9156L16.0163 18.8707L15.9819 18.832L15.9276 18.6775L15.8921 18.6002L15.89 18.5762L15.8795 18.5459C15.8618 18.4457 15.8618 18.3433 15.8795 18.242L16.4758 14.674C16.5238 14.3889 16.434 14.0976 16.2304 13.8918L14.7079 12.3495L14.71 12.3464L13.7149 11.3367C13.5802 11.2009 13.4935 11.0255 13.4653 10.8354C13.3912 10.3426 13.7326 9.88415 14.2265 9.81106L17.614 9.30983C17.6891 9.29939 17.7612 9.27851 17.8301 9.25031L17.8886 9.2169L18.0202 9.14276C18.1361 9.054 18.2342 8.93705 18.2979 8.80026L19.7671 5.64255C19.8079 5.55797 19.8569 5.48175 19.9175 5.41596L19.9457 5.39194L19.953 5.38463L19.9791 5.36479L20.1211 5.24993L20.1827 5.22382L20.2109 5.20398L20.2537 5.19354L20.3602 5.14864L20.5085 5.13298L20.5597 5.12045ZM36.744 0.261719L36.7743 0.264851L36.8045 0.261719L36.8557 0.273205L37.004 0.289913L37.1105 0.334814L37.1533 0.345256L37.1815 0.364052L37.2431 0.390157L37.383 0.506065L37.4112 0.524861L37.4164 0.533214L37.4446 0.557231C37.5052 0.623017 37.5564 0.6982 37.595 0.783826L39.0642 3.94049C39.13 4.07832 39.2261 4.19527 39.3441 4.28299L39.4756 4.35817L39.5331 4.39054C39.6009 4.41978 39.673 4.43962 39.7492 4.45111L43.1356 4.95233C43.6295 5.02438 43.971 5.48383 43.8989 5.9767C43.8707 6.16571 43.7841 6.34113 43.6473 6.47793L43.0594 7.07522L43.0615 7.07835L41.1338 9.03207C40.9302 9.23883 40.8383 9.52912 40.8864 9.81419L41.4847 13.3833C41.5025 13.4836 41.5004 13.5869 41.4826 13.6861L41.4722 13.7164V13.7415L41.4367 13.8188L41.3813 13.9733L41.3479 14.0119L41.3281 14.0558L41.233 14.1466L41.1474 14.2448L41.1057 14.2657L41.0754 14.2939L40.9689 14.3356L40.8383 14.4004L40.7851 14.4056L40.7412 14.4223L40.5888 14.4213L40.4927 14.4296L40.4666 14.4213H40.4384C40.3371 14.4035 40.2421 14.3701 40.1512 14.32L37.2149 12.6826C37.146 12.6451 37.0729 12.6158 36.9988 12.597L36.7743 12.5688L36.5487 12.597C36.4746 12.6158 36.4025 12.6451 36.3336 12.6826L33.3962 14.32C33.3064 14.3701 33.2103 14.4035 33.1101 14.4213H33.0819L33.0548 14.4296L32.9597 14.4213L32.8073 14.4223L32.7634 14.4056L32.7102 14.4004L32.5786 14.3356L32.4721 14.2939L32.4428 14.2657L32.4 14.2448L32.3155 14.1466L32.2194 14.0558L32.1995 14.0119L32.1661 13.9733L32.1118 13.8188L32.0763 13.7415V13.7164L32.0659 13.6861C32.0481 13.5869 32.0481 13.4836 32.0638 13.3833L32.6621 9.81419C32.7102 9.52912 32.6172 9.23883 32.4147 9.03207L30.8932 7.48977V7.48768L29.9002 6.47793C29.7644 6.34113 29.6778 6.16571 29.6496 5.9767C29.5765 5.48383 29.9179 5.02438 30.4119 4.95233L33.7982 4.45111C33.8745 4.43962 33.9476 4.41978 34.0144 4.39054L34.0729 4.35817L34.2034 4.28299C34.3224 4.19527 34.4175 4.07832 34.4832 3.94049L35.9525 0.783826C35.9911 0.6982 36.0433 0.623017 36.1028 0.557231L36.131 0.533214L36.1362 0.524861L36.1655 0.506065L36.3054 0.390157L36.367 0.364052L36.3952 0.345256L36.438 0.334814L36.5435 0.289913L36.6928 0.273205L36.744 0.261719Z" fill="#1D2739"/>
</g>
</svg>
