<svg width="80" height="80" viewBox="0 0 80 80" fill="none" xmlns="http://www.w3.org/2000/svg">
<circle cx="40" cy="40" r="40" fill="#F0F2F5"/>
<path d="M56.6668 39.9997C56.6668 42.1884 56.2357 44.3556 55.3982 46.3777C54.5606 48.3998 53.3329 50.2371 51.7853 51.7848C50.2376 53.3324 48.4003 54.5601 46.3782 55.3977C44.3561 56.2352 42.1889 56.6663 40.0002 56.6663C37.8115 56.6663 35.6442 56.2352 33.6221 55.3977C31.6 54.5601 29.7627 53.3324 28.215 51.7848C26.6674 50.2371 25.4397 48.3998 24.6022 46.3777C23.7646 44.3556 23.3335 42.1884 23.3335 39.9997C23.3335 37.811 23.7646 35.6437 24.6022 33.6216C25.4397 31.5995 26.6674 29.7622 28.2151 28.2146C29.7627 26.6669 31.6 25.4393 33.6221 24.6017C35.6442 23.7641 37.8115 23.333 40.0002 23.333C42.1889 23.333 44.3561 23.7641 46.3782 24.6017C48.4003 25.4393 50.2376 26.6669 51.7853 28.2146C53.3329 29.7622 54.5606 31.5995 55.3982 33.6216C56.2357 35.6437 56.6668 37.811 56.6668 39.9997L56.6668 39.9997Z" stroke="#1C274C" stroke-width="1.5"/>
<path d="M46.6668 39.9997C46.6668 42.1884 46.4944 44.3556 46.1594 46.3777C45.8243 48.3998 45.3333 50.2371 44.7142 51.7848C44.0952 53.3324 43.3602 54.5601 42.5514 55.3977C41.7425 56.2352 40.8756 56.6663 40.0002 56.6663C39.1247 56.6663 38.2578 56.2352 37.4489 55.3977C36.6401 54.5601 35.9052 53.3324 35.2861 51.7848C34.6671 50.2371 34.176 48.3998 33.841 46.3777C33.5059 44.3556 33.3335 42.1884 33.3335 39.9997C33.3335 37.811 33.5059 35.6437 33.841 33.6216C34.176 31.5995 34.6671 29.7622 35.2861 28.2146C35.9052 26.6669 36.6401 25.4393 37.4489 24.6017C38.2578 23.7641 39.1247 23.333 40.0002 23.333C40.8756 23.333 41.7425 23.7641 42.5514 24.6017C43.3602 25.4393 44.0952 26.6669 44.7142 28.2146C45.3333 29.7622 45.8243 31.5995 46.1594 33.6216C46.4944 35.6437 46.6668 37.811 46.6668 39.9997L46.6668 39.9997Z" stroke="#1C274C" stroke-width="1.5"/>
<path d="M23.3335 40H56.6668" stroke="#1C274C" stroke-width="1.5" stroke-linecap="round"/>
</svg>
