<svg width="109" height="69" viewBox="0 0 109 69" fill="none" xmlns="http://www.w3.org/2000/svg">
<path d="M87.6424 29.3847V37.366H70.9996L60.889 26.1593L58.9252 27.2955L53.1437 20.7976L38.277 37.366H21.7183V29.3847H39.7826L24.1385 20.3546L28.1297 13.4409L43.7738 22.471L34.7419 6.83011L41.657 2.83645L50.6889 18.4806V0.419922H58.6718V18.4806L67.7037 2.83645L74.6188 6.83011L65.5869 22.471L81.2309 13.4409L85.2222 20.3546L69.5781 29.3847H87.6424Z" fill="#F19E38"/>
<path d="M58.2815 33.8997L53.2839 23.7001L58.5334 29.848L60.2583 28.6956L67.3781 36.3804L60.3306 31.8698L58.2815 33.8997ZM60.3306 27.1882L58.5334 28.2217L53.2477 22.3105L39.6571 37.3854H69.5709L60.3306 27.1882ZM7.91981 62.5096C6.52347 62.5096 5.29243 62.257 4.22791 61.7519C3.16177 61.2471 2.33525 60.5357 1.74755 59.6167C1.15945 58.6986 0.866211 57.6242 0.866211 56.3934H3.75921C3.75921 57.0918 3.92452 57.7298 4.25512 58.3084C4.58573 58.8871 5.05849 59.3464 5.67421 59.6858C6.28953 60.0257 7.03806 60.1954 7.92022 60.1954C8.6919 60.1954 9.35677 60.0671 9.91766 59.8097C10.4781 59.5526 10.905 59.1993 11.1987 58.749C11.4927 58.2995 11.6397 57.7805 11.6397 57.1925C11.6397 56.5132 11.4882 55.9577 11.1853 55.5256C10.8819 55.0944 10.4729 54.7362 9.95868 54.4512C9.4445 54.1669 8.83811 53.9099 8.14035 53.6801C7.4159 53.4422 6.69024 53.208 5.96339 52.9776C4.43829 52.4635 3.30433 51.8113 2.56026 51.0215C1.81619 50.2321 1.44457 49.2032 1.44457 47.9359C1.44457 46.8525 1.69679 45.9112 2.20204 45.112C2.70729 44.3133 3.42861 43.6888 4.36519 43.2388C5.30218 42.7889 6.39472 42.564 7.64444 42.564C8.91163 42.564 10.009 42.7938 10.9371 43.2527C11.8643 43.7119 12.5946 44.3454 13.1279 45.1535C13.6603 45.962 13.9361 46.9077 13.9544 47.9911H11.0334C11.0334 47.4953 10.905 47.0088 10.6479 46.5308C10.3904 46.0537 10.0046 45.6631 9.49039 45.3601C8.9758 45.0572 8.3422 44.9053 7.58961 44.9053C6.96454 44.8875 6.40446 44.9882 5.90815 45.2087C5.41265 45.4288 5.02193 45.7504 4.73722 46.1727C4.4521 46.5954 4.30995 47.1005 4.30995 47.6881C4.30995 48.2761 4.43829 48.7488 4.69579 49.107C4.95289 49.4651 5.31599 49.7729 5.78428 50.0296C6.25257 50.287 6.80818 50.5213 7.45152 50.732C8.09405 50.9436 8.80156 51.1779 9.57324 51.4349C10.5098 51.7472 11.3546 52.1281 12.108 52.578C12.861 53.0283 13.4536 53.6069 13.8853 54.3135C14.3171 55.0209 14.5331 55.9252 14.5331 57.0273C14.5331 57.9823 14.2854 58.8729 13.7891 59.6996C13.2936 60.526 12.5584 61.2008 11.5845 61.7242C10.611 62.248 9.38926 62.5096 7.91981 62.5096ZM18.749 68.24L22.1383 60.6364H21.339L15.8556 48.2943H18.859L23.1853 58.377L27.5665 48.2943H30.4599L21.6424 68.24H18.749ZM32.3335 62.1791V48.294H34.8134L34.9787 50.6634C35.4198 49.8188 36.0396 49.1577 36.8389 48.6798C37.6378 48.2027 38.5699 47.9634 39.6356 47.9634C40.7558 47.9634 41.711 48.1839 42.5014 48.6245C43.291 49.0655 43.9018 49.7315 44.3336 50.622C44.7653 51.5133 44.9814 52.6288 44.9814 53.9692V62.1791H42.2256V54.2445C42.2256 52.9593 41.9413 51.9815 41.3715 51.3107C40.8021 50.6407 39.9752 50.3053 38.8916 50.3053C38.1751 50.3053 37.5318 50.4799 36.9628 50.8287C36.3929 51.1779 35.9384 51.6826 35.5989 52.3441C35.2586 53.0052 35.0892 53.8137 35.0892 54.7683V62.1791H32.3335ZM53.11 60.2783C53.6977 60.2783 54.2302 60.1589 54.7082 59.9201C55.1844 59.6829 55.6029 59.3444 55.9344 58.9284C56.2732 58.5075 56.5387 58.0325 56.7199 57.5235C56.9031 57.0094 57.0042 56.4673 57.0229 55.898V55.8428H53.7436C52.9354 55.8428 52.2876 55.9349 51.801 56.1185C51.314 56.302 50.9607 56.564 50.7402 56.9035C50.52 57.2433 50.4095 57.6336 50.4095 58.0742C50.4095 58.5152 50.5152 58.9009 50.7264 59.2314C50.9375 59.5619 51.2499 59.8194 51.6633 60.0025C52.0768 60.1864 52.5589 60.2783 53.11 60.2783ZM52.5865 62.5096C51.4473 62.5096 50.5013 62.3167 49.7483 61.9313C48.9949 61.5456 48.4349 61.0266 48.0673 60.3745C47.6997 59.7227 47.5165 59.011 47.5165 58.2398C47.5165 57.34 47.755 56.5639 48.2326 55.9118C48.7102 55.26 49.3901 54.7594 50.2719 54.4101C51.1536 54.0617 52.219 53.8863 53.4683 53.8863H57.0505C57.0505 53.0782 56.9307 52.4083 56.6923 51.8755C56.4531 51.3431 56.0997 50.9392 55.6314 50.6634C55.1627 50.3881 54.5706 50.2504 53.8541 50.2504C53.0272 50.2504 52.3201 50.4478 51.7324 50.8425C51.1443 51.2376 50.7767 51.8389 50.6301 52.647H47.8748C47.9848 51.6554 48.3199 50.8108 48.8804 50.1123C49.4405 49.4147 50.1618 48.8819 51.0436 48.5144C51.9253 48.1474 52.8619 47.9638 53.8541 47.9638C55.1582 47.9638 56.2512 48.1937 57.1329 48.6525C58.0147 49.1114 58.6804 49.7591 59.1308 50.5947C59.5808 51.4304 59.8058 52.4261 59.8058 53.5834V62.1791H57.4087L57.1882 59.8372C56.9983 60.2141 56.7622 60.5659 56.4855 60.8845C56.1988 61.2166 55.8644 61.5043 55.4933 61.7385C55.1168 61.9773 54.6896 62.1648 54.2123 62.3029C53.7343 62.4409 53.1929 62.5096 52.5865 62.5096ZM69.6428 48.2943V50.6086H66.2815V62.1791H63.5253V50.6086H61.4861V48.2943H63.5253V46.4212C63.5253 45.4661 63.6906 44.6849 64.0212 44.079C64.3527 43.4728 64.8295 43.0321 65.4546 42.7564C66.0784 42.4811 66.8322 42.3435 67.714 42.3435H69.3398V44.6849H68.1274C67.4837 44.6849 67.0154 44.8189 66.7221 45.0844C66.4281 45.3512 66.2815 45.806 66.2815 46.448V48.2943H69.6428ZM76.4218 60.2783C77.0095 60.2783 77.542 60.1589 78.02 59.9201C78.4961 59.6829 78.9146 59.3444 79.2462 58.9284C79.585 58.5075 79.8505 58.0325 80.0317 57.5235C80.2144 57.0094 80.316 56.4673 80.3346 55.898V55.8428H77.0554C76.2472 55.8428 75.5994 55.9349 75.1128 56.1185C74.6254 56.302 74.2721 56.564 74.0519 56.9035C73.8318 57.2433 73.7213 57.6336 73.7213 58.0742C73.7213 58.5152 73.8269 58.9009 74.0381 59.2314C74.2493 59.5619 74.5616 59.8194 74.9751 60.0025C75.3886 60.1864 75.8707 60.2783 76.4218 60.2783ZM75.8979 62.5096C74.759 62.5096 73.8131 62.3167 73.0601 61.9313C72.3067 61.5456 71.7466 61.0266 71.3786 60.3745C71.0115 59.7227 70.8283 59.011 70.8283 58.2398C70.8283 57.34 71.0667 56.5639 71.5444 55.9118C72.022 55.26 72.7019 54.7594 73.5832 54.4101C74.4654 54.0617 75.5307 53.8863 76.7796 53.8863H80.3619C80.3619 53.0782 80.2425 52.4083 80.004 51.8755C79.7644 51.3431 79.4111 50.9392 78.9432 50.6634C78.4745 50.3881 77.8823 50.2504 77.1659 50.2504C76.339 50.2504 75.6318 50.4478 75.0441 50.8425C74.456 51.2376 74.0885 51.8389 73.9419 52.647H71.1865C71.2962 51.6554 71.6317 50.8108 72.1922 50.1123C72.7522 49.4147 73.4736 48.8819 74.3553 48.5144C75.2367 48.1474 76.1736 47.9638 77.1659 47.9638C78.4696 47.9638 79.563 48.1937 80.4447 48.6525C81.3261 49.1114 81.9921 49.7591 82.4426 50.5947C82.8926 51.4304 83.1176 52.4261 83.1176 53.5834V62.1791H80.7205L80.5 59.8372C80.31 60.2141 80.074 60.5659 79.7973 60.8845C79.5105 61.2166 79.1762 61.5043 78.8051 61.7385C78.4286 61.9773 78.0009 62.1648 77.5241 62.3029C77.0461 62.4409 76.5047 62.5096 75.8983 62.5096M86.093 62.1791V48.294H88.573L88.7935 50.9115C89.1245 50.287 89.5327 49.7591 90.0201 49.3275C90.5063 48.8958 91.0944 48.5608 91.7832 48.3216C92.4724 48.0833 93.2388 47.9634 94.0844 47.9634V50.8563H93.0926C92.5224 50.8563 91.9802 50.9293 91.4664 51.0767C90.9518 51.2237 90.5018 51.4622 90.116 51.7931C89.7305 52.1237 89.4227 52.5686 89.1932 53.129C88.9629 53.6894 88.8488 54.4012 88.8488 55.2641V62.1791H86.093ZM101.91 62.5096C100.587 62.5096 99.416 62.2067 98.3965 61.6004C97.3771 60.9941 96.5778 60.1499 95.999 59.0657C95.4207 57.9824 95.1311 56.715 95.1311 55.2641C95.1311 53.8136 95.4113 52.5414 95.9718 51.4483C96.5323 50.356 97.3308 49.502 98.3689 48.8864C99.4066 48.2712 100.605 47.9634 101.965 47.9634C103.324 47.9634 104.49 48.2664 105.464 48.8726C106.438 49.4785 107.186 50.2777 107.71 51.2693C108.233 52.2613 108.495 53.3633 108.495 54.5754V55.1813C108.495 55.4018 108.477 55.6316 108.44 55.8699H97.1427V53.9416H105.767C105.712 52.803 105.327 51.9031 104.61 51.242C103.894 50.5805 103.002 50.25 101.938 50.25C101.184 50.25 100.495 50.4201 99.8709 50.7596C99.2458 51.0999 98.7499 51.5957 98.3827 52.2475C98.0148 52.8996 97.8316 53.7215 97.8316 54.7131V55.4846C97.8316 56.5132 98.0148 57.3765 98.3827 58.0742C98.7499 58.7722 99.2413 59.3049 99.857 59.672C100.472 60.0395 101.157 60.2231 101.91 60.2231C102.791 60.2231 103.522 60.0302 104.1 59.6444C104.679 59.2586 105.097 58.7352 105.354 58.0742H108.11C107.875 58.9107 107.461 59.6862 106.897 60.3469C106.327 61.0177 105.63 61.5452 104.803 61.9309C103.976 62.3167 103.012 62.5096 101.91 62.5096Z" fill="#F19E38"/>
</svg>
