<svg width="100" height="91" viewBox="0 0 100 91" fill="none" xmlns="http://www.w3.org/2000/svg">
<g clip-path="url(#clip0_1001_62345)">
<mask id="mask0_1001_62345" style="mask-type:luminance" maskUnits="userSpaceOnUse" x="0" y="0" width="100" height="91">
<path d="M100 0.563965H0V90.2625H100V0.563965Z" fill="white"/>
</mask>
<g mask="url(#mask0_1001_62345)">
<mask id="mask1_1001_62345" style="mask-type:luminance" maskUnits="userSpaceOnUse" x="-28" y="-13" width="436" height="483">
<path d="M-27.1348 -12.7527H407.413V469.283H-27.1348V-12.7527Z" fill="white"/>
</mask>
<g mask="url(#mask1_1001_62345)">
<g opacity="0.5">
<path d="M14 45.1801L61.005 18.1729L14 45.1801Z" fill="white"/>
<path d="M14 45.1801L61.005 18.1729" stroke="#96DAFC" stroke-width="10" stroke-linecap="round"/>
</g>
<g opacity="0.5">
<path d="M25.1816 62.8937L72.1866 35.8865L25.1816 62.8937Z" fill="white"/>
<path d="M25.1816 62.8937L72.1866 35.8865" stroke="#96DAFC" stroke-width="10" stroke-linecap="round"/>
</g>
<g opacity="0.5">
<path d="M84.2266 29.0999L87.89 26.9673L84.2266 29.0999Z" fill="white"/>
<path d="M84.2266 29.0999L87.89 26.9673" stroke="#96DAFC" stroke-width="10" stroke-linecap="round"/>
</g>
<g opacity="0.5">
<path d="M41.7637 77.4665L77.4621 56.6152L41.7637 77.4665Z" fill="white"/>
<path d="M41.7637 77.4665L77.4621 56.6152" stroke="#96DAFC" stroke-width="10" stroke-linecap="round"/>
</g>
<path d="M86.6765 57.0189C87.2503 57.0526 87.6889 57.5459 87.6552 58.1197C87.6214 58.6936 87.1281 59.1321 86.5543 59.0984C85.9804 59.0647 85.5419 58.5714 85.5756 57.9975C85.6093 57.4237 86.1026 56.9851 86.6765 57.0189Z" stroke="#029EF2" stroke-width="4.28355"/>
<path d="M26.9501 80.9965C27.8937 81.0519 28.6149 81.8631 28.5594 82.8068C28.504 83.7504 27.6928 84.4716 26.7491 84.4161C25.8055 84.3607 25.0843 83.5495 25.1398 82.6058C25.1952 81.6622 26.0064 80.941 26.9501 80.9965Z" stroke="#0291DE" stroke-width="7.044"/>
<path d="M47.7098 9.76209C48.6535 9.81754 49.3746 10.6287 49.3192 11.5724C49.2637 12.516 48.4525 13.2372 47.5089 13.1817C46.5652 13.1263 45.8441 12.3151 45.8995 11.3714C45.955 10.4278 46.7662 9.70664 47.7098 9.76209Z" stroke="#0291DE" stroke-width="7.044"/>
<path d="M9.76295 31.9585C10.1948 31.9585 10.5454 32.3091 10.5454 32.741C10.5454 33.1728 10.1948 33.5235 9.76295 33.5235C9.3311 33.5235 8.98047 33.1728 8.98047 32.741C8.98047 32.3091 9.3311 31.9585 9.76295 31.9585Z" stroke="#029EF2" stroke-width="5.14888"/>
<path d="M70.5364 82.9854C70.9682 82.9854 71.3189 83.336 71.3189 83.7678C71.3189 84.1997 70.9682 84.5503 70.5364 84.5503C70.1045 84.5503 69.7539 84.1997 69.7539 83.7678C69.7539 83.336 70.1045 82.9854 70.5364 82.9854Z" stroke="#029EF2" stroke-width="5.14888"/>
<path d="M80.2461 9.44189L79.571 6.3746" stroke="#029EF2" stroke-width="3"/>
<path d="M78.4297 8.24048L81.497 7.56539" stroke="#029EF2" stroke-width="3"/>
<path d="M13.7461 60.6777L12.9026 57.6524" stroke="#0291DE" stroke-width="3"/>
<path d="M11.8652 59.5786L14.8905 58.7351" stroke="#0291DE" stroke-width="3"/>
<path d="M79.0898 74.1995L77.9618 71.2683" stroke="#0291DE" stroke-width="3"/>
<path d="M77.1133 73.2844L80.0444 72.1564" stroke="#0291DE" stroke-width="3"/>
</g>
<path d="M50.0153 22.8354C62.4781 22.8354 72.597 32.9543 72.597 45.4171C72.597 57.88 62.4781 67.9988 50.0153 67.9988C37.5525 67.9988 27.4336 57.88 27.4336 45.4171C27.4336 32.9543 37.5525 22.8354 50.0153 22.8354Z" fill="#12ACFD"/>
<path d="M50.0006 24.9712C61.2848 24.9712 70.4466 34.133 70.4466 45.4171C70.4466 56.7013 61.2848 65.8631 50.0006 65.8631C38.7165 65.8631 29.5547 56.7013 29.5547 45.4171C29.5547 34.133 38.7165 24.9712 50.0006 24.9712Z" fill="#029EF2"/>
<path d="M40.7676 46.1669L46.2952 51.5689C46.2952 51.5689 56.1255 41.7386 58.6497 39.2144" stroke="white" stroke-width="18"/>
</g>
</g>
<defs>
<clipPath id="clip0_1001_62345">
<rect width="100" height="89.6985" fill="white" transform="translate(0 0.563965)"/>
</clipPath>
</defs>
</svg>
